<mxfile host="app.diagrams.net" agent="Mozilla/5.0 (Windows NT 10.0; Win64; x64) AppleWebKit/537.36 (KHTML, like Gecko) Chrome/131.0.0.0 Safari/537.36" version="25.0.3">
  <diagram id="C5RBs43oDa-KdzZeNtuy" name="Page-1">
    <mxGraphModel dx="2100" dy="1044" grid="1" gridSize="10" guides="1" tooltips="1" connect="1" arrows="1" fold="1" page="1" pageScale="1" pageWidth="1654" pageHeight="1169" math="0" shadow="0">
      <root>
        <mxCell id="WIyWlLk6GJQsqaUBKTNV-0" />
        <mxCell id="WIyWlLk6GJQsqaUBKTNV-1" parent="WIyWlLk6GJQsqaUBKTNV-0" />
        <mxCell id="Dwmg8EtGotrLEjZZTlVN-6" value="Brans" style="shape=table;startSize=30;container=1;collapsible=0;childLayout=tableLayout;fixedRows=1;rowLines=0;fontStyle=0;strokeColor=default;fontSize=16;" parent="WIyWlLk6GJQsqaUBKTNV-1" vertex="1">
          <mxGeometry x="1170" y="313" width="116" height="144" as="geometry" />
        </mxCell>
        <mxCell id="Dwmg8EtGotrLEjZZTlVN-7" value="" style="shape=tableRow;horizontal=0;startSize=0;swimlaneHead=0;swimlaneBody=0;top=0;left=0;bottom=0;right=0;collapsible=0;dropTarget=0;fillColor=none;points=[[0,0.5],[1,0.5]];portConstraint=eastwest;strokeColor=inherit;fontSize=16;" parent="Dwmg8EtGotrLEjZZTlVN-6" vertex="1">
          <mxGeometry y="30" width="116" height="30" as="geometry" />
        </mxCell>
        <mxCell id="Dwmg8EtGotrLEjZZTlVN-8" value="PK" style="shape=partialRectangle;html=1;whiteSpace=wrap;connectable=0;fillColor=none;top=0;left=0;bottom=0;right=0;overflow=hidden;pointerEvents=1;strokeColor=inherit;fontSize=16;" parent="Dwmg8EtGotrLEjZZTlVN-7" vertex="1">
          <mxGeometry width="26" height="30" as="geometry">
            <mxRectangle width="26" height="30" as="alternateBounds" />
          </mxGeometry>
        </mxCell>
        <mxCell id="Dwmg8EtGotrLEjZZTlVN-9" value="BransID" style="shape=partialRectangle;html=1;whiteSpace=wrap;connectable=0;fillColor=none;top=0;left=0;bottom=0;right=0;align=left;spacingLeft=6;overflow=hidden;strokeColor=inherit;fontSize=16;" parent="Dwmg8EtGotrLEjZZTlVN-7" vertex="1">
          <mxGeometry x="26" width="90" height="30" as="geometry">
            <mxRectangle width="90" height="30" as="alternateBounds" />
          </mxGeometry>
        </mxCell>
        <mxCell id="Dwmg8EtGotrLEjZZTlVN-10" value="" style="shape=tableRow;horizontal=0;startSize=0;swimlaneHead=0;swimlaneBody=0;top=0;left=0;bottom=0;right=0;collapsible=0;dropTarget=0;fillColor=none;points=[[0,0.5],[1,0.5]];portConstraint=eastwest;strokeColor=inherit;fontSize=16;" parent="Dwmg8EtGotrLEjZZTlVN-6" vertex="1">
          <mxGeometry y="60" width="116" height="30" as="geometry" />
        </mxCell>
        <mxCell id="Dwmg8EtGotrLEjZZTlVN-11" value="" style="shape=partialRectangle;html=1;whiteSpace=wrap;connectable=0;fillColor=none;top=0;left=0;bottom=0;right=0;overflow=hidden;strokeColor=inherit;fontSize=16;" parent="Dwmg8EtGotrLEjZZTlVN-10" vertex="1">
          <mxGeometry width="26" height="30" as="geometry">
            <mxRectangle width="26" height="30" as="alternateBounds" />
          </mxGeometry>
        </mxCell>
        <mxCell id="Dwmg8EtGotrLEjZZTlVN-12" value="Adı" style="shape=partialRectangle;html=1;whiteSpace=wrap;connectable=0;fillColor=none;top=0;left=0;bottom=0;right=0;align=left;spacingLeft=6;overflow=hidden;strokeColor=inherit;fontSize=16;" parent="Dwmg8EtGotrLEjZZTlVN-10" vertex="1">
          <mxGeometry x="26" width="90" height="30" as="geometry">
            <mxRectangle width="90" height="30" as="alternateBounds" />
          </mxGeometry>
        </mxCell>
        <mxCell id="aH4MFKl8BmY1fgAoLkil-34" style="shape=tableRow;horizontal=0;startSize=0;swimlaneHead=0;swimlaneBody=0;top=0;left=0;bottom=0;right=0;collapsible=0;dropTarget=0;fillColor=none;points=[[0,0.5],[1,0.5]];portConstraint=eastwest;strokeColor=inherit;fontSize=16;" parent="Dwmg8EtGotrLEjZZTlVN-6" vertex="1">
          <mxGeometry y="90" width="116" height="27" as="geometry" />
        </mxCell>
        <mxCell id="aH4MFKl8BmY1fgAoLkil-35" value="FK" style="shape=partialRectangle;html=1;whiteSpace=wrap;connectable=0;fillColor=none;top=0;left=0;bottom=0;right=0;overflow=hidden;strokeColor=inherit;fontSize=16;" parent="aH4MFKl8BmY1fgAoLkil-34" vertex="1">
          <mxGeometry width="26" height="27" as="geometry">
            <mxRectangle width="26" height="27" as="alternateBounds" />
          </mxGeometry>
        </mxCell>
        <mxCell id="aH4MFKl8BmY1fgAoLkil-36" value="TakımID" style="shape=partialRectangle;html=1;whiteSpace=wrap;connectable=0;fillColor=none;top=0;left=0;bottom=0;right=0;align=left;spacingLeft=6;overflow=hidden;strokeColor=inherit;fontSize=16;" parent="aH4MFKl8BmY1fgAoLkil-34" vertex="1">
          <mxGeometry x="26" width="90" height="27" as="geometry">
            <mxRectangle width="90" height="27" as="alternateBounds" />
          </mxGeometry>
        </mxCell>
        <mxCell id="rsTdlN0C95ZgyZTxl1ph-53" style="shape=tableRow;horizontal=0;startSize=0;swimlaneHead=0;swimlaneBody=0;top=0;left=0;bottom=0;right=0;collapsible=0;dropTarget=0;fillColor=none;points=[[0,0.5],[1,0.5]];portConstraint=eastwest;strokeColor=inherit;fontSize=16;" vertex="1" parent="Dwmg8EtGotrLEjZZTlVN-6">
          <mxGeometry y="117" width="116" height="27" as="geometry" />
        </mxCell>
        <mxCell id="rsTdlN0C95ZgyZTxl1ph-54" style="shape=partialRectangle;html=1;whiteSpace=wrap;connectable=0;fillColor=none;top=0;left=0;bottom=0;right=0;overflow=hidden;strokeColor=inherit;fontSize=16;" vertex="1" parent="rsTdlN0C95ZgyZTxl1ph-53">
          <mxGeometry width="26" height="27" as="geometry">
            <mxRectangle width="26" height="27" as="alternateBounds" />
          </mxGeometry>
        </mxCell>
        <mxCell id="rsTdlN0C95ZgyZTxl1ph-55" value="brans_adi" style="shape=partialRectangle;html=1;whiteSpace=wrap;connectable=0;fillColor=none;top=0;left=0;bottom=0;right=0;align=left;spacingLeft=6;overflow=hidden;strokeColor=inherit;fontSize=16;" vertex="1" parent="rsTdlN0C95ZgyZTxl1ph-53">
          <mxGeometry x="26" width="90" height="27" as="geometry">
            <mxRectangle width="90" height="27" as="alternateBounds" />
          </mxGeometry>
        </mxCell>
        <mxCell id="Dwmg8EtGotrLEjZZTlVN-16" value="Takım" style="shape=table;startSize=30;container=1;collapsible=0;childLayout=tableLayout;fixedRows=1;rowLines=0;fontStyle=0;strokeColor=default;fontSize=16;" parent="WIyWlLk6GJQsqaUBKTNV-1" vertex="1">
          <mxGeometry x="550" y="340" width="150" height="120" as="geometry" />
        </mxCell>
        <mxCell id="Dwmg8EtGotrLEjZZTlVN-17" value="" style="shape=tableRow;horizontal=0;startSize=0;swimlaneHead=0;swimlaneBody=0;top=0;left=0;bottom=0;right=0;collapsible=0;dropTarget=0;fillColor=none;points=[[0,0.5],[1,0.5]];portConstraint=eastwest;strokeColor=inherit;fontSize=16;" parent="Dwmg8EtGotrLEjZZTlVN-16" vertex="1">
          <mxGeometry y="30" width="150" height="30" as="geometry" />
        </mxCell>
        <mxCell id="Dwmg8EtGotrLEjZZTlVN-18" value="PK" style="shape=partialRectangle;html=1;whiteSpace=wrap;connectable=0;fillColor=none;top=0;left=0;bottom=0;right=0;overflow=hidden;pointerEvents=1;strokeColor=inherit;fontSize=16;" parent="Dwmg8EtGotrLEjZZTlVN-17" vertex="1">
          <mxGeometry width="32" height="30" as="geometry">
            <mxRectangle width="32" height="30" as="alternateBounds" />
          </mxGeometry>
        </mxCell>
        <mxCell id="Dwmg8EtGotrLEjZZTlVN-19" value="TakımID" style="shape=partialRectangle;html=1;whiteSpace=wrap;connectable=0;fillColor=none;top=0;left=0;bottom=0;right=0;align=left;spacingLeft=6;overflow=hidden;strokeColor=inherit;fontSize=16;" parent="Dwmg8EtGotrLEjZZTlVN-17" vertex="1">
          <mxGeometry x="32" width="118" height="30" as="geometry">
            <mxRectangle width="118" height="30" as="alternateBounds" />
          </mxGeometry>
        </mxCell>
        <mxCell id="Dwmg8EtGotrLEjZZTlVN-20" value="" style="shape=tableRow;horizontal=0;startSize=0;swimlaneHead=0;swimlaneBody=0;top=0;left=0;bottom=0;right=0;collapsible=0;dropTarget=0;fillColor=none;points=[[0,0.5],[1,0.5]];portConstraint=eastwest;strokeColor=inherit;fontSize=16;" parent="Dwmg8EtGotrLEjZZTlVN-16" vertex="1">
          <mxGeometry y="60" width="150" height="30" as="geometry" />
        </mxCell>
        <mxCell id="Dwmg8EtGotrLEjZZTlVN-21" value="" style="shape=partialRectangle;html=1;whiteSpace=wrap;connectable=0;fillColor=none;top=0;left=0;bottom=0;right=0;overflow=hidden;strokeColor=inherit;fontSize=16;" parent="Dwmg8EtGotrLEjZZTlVN-20" vertex="1">
          <mxGeometry width="32" height="30" as="geometry">
            <mxRectangle width="32" height="30" as="alternateBounds" />
          </mxGeometry>
        </mxCell>
        <mxCell id="Dwmg8EtGotrLEjZZTlVN-22" value="Adı" style="shape=partialRectangle;html=1;whiteSpace=wrap;connectable=0;fillColor=none;top=0;left=0;bottom=0;right=0;align=left;spacingLeft=6;overflow=hidden;strokeColor=inherit;fontSize=16;" parent="Dwmg8EtGotrLEjZZTlVN-20" vertex="1">
          <mxGeometry x="32" width="118" height="30" as="geometry">
            <mxRectangle width="118" height="30" as="alternateBounds" />
          </mxGeometry>
        </mxCell>
        <mxCell id="rsTdlN0C95ZgyZTxl1ph-60" style="shape=tableRow;horizontal=0;startSize=0;swimlaneHead=0;swimlaneBody=0;top=0;left=0;bottom=0;right=0;collapsible=0;dropTarget=0;fillColor=none;points=[[0,0.5],[1,0.5]];portConstraint=eastwest;strokeColor=inherit;fontSize=16;" vertex="1" parent="Dwmg8EtGotrLEjZZTlVN-16">
          <mxGeometry y="90" width="150" height="30" as="geometry" />
        </mxCell>
        <mxCell id="rsTdlN0C95ZgyZTxl1ph-61" style="shape=partialRectangle;html=1;whiteSpace=wrap;connectable=0;fillColor=none;top=0;left=0;bottom=0;right=0;overflow=hidden;strokeColor=inherit;fontSize=16;" vertex="1" parent="rsTdlN0C95ZgyZTxl1ph-60">
          <mxGeometry width="32" height="30" as="geometry">
            <mxRectangle width="32" height="30" as="alternateBounds" />
          </mxGeometry>
        </mxCell>
        <mxCell id="rsTdlN0C95ZgyZTxl1ph-62" value="totalparadegeri" style="shape=partialRectangle;html=1;whiteSpace=wrap;connectable=0;fillColor=none;top=0;left=0;bottom=0;right=0;align=left;spacingLeft=6;overflow=hidden;strokeColor=inherit;fontSize=16;" vertex="1" parent="rsTdlN0C95ZgyZTxl1ph-60">
          <mxGeometry x="32" width="118" height="30" as="geometry">
            <mxRectangle width="118" height="30" as="alternateBounds" />
          </mxGeometry>
        </mxCell>
        <mxCell id="Dwmg8EtGotrLEjZZTlVN-26" value="Oyuncu" style="shape=table;startSize=30;container=1;collapsible=0;childLayout=tableLayout;fixedRows=1;rowLines=0;fontStyle=0;strokeColor=default;fontSize=16;" parent="WIyWlLk6GJQsqaUBKTNV-1" vertex="1">
          <mxGeometry x="1148" y="558.5" width="180" height="180" as="geometry" />
        </mxCell>
        <mxCell id="Dwmg8EtGotrLEjZZTlVN-27" value="" style="shape=tableRow;horizontal=0;startSize=0;swimlaneHead=0;swimlaneBody=0;top=0;left=0;bottom=0;right=0;collapsible=0;dropTarget=0;fillColor=none;points=[[0,0.5],[1,0.5]];portConstraint=eastwest;strokeColor=inherit;fontSize=16;" parent="Dwmg8EtGotrLEjZZTlVN-26" vertex="1">
          <mxGeometry y="30" width="180" height="30" as="geometry" />
        </mxCell>
        <mxCell id="Dwmg8EtGotrLEjZZTlVN-28" value="PK" style="shape=partialRectangle;html=1;whiteSpace=wrap;connectable=0;fillColor=none;top=0;left=0;bottom=0;right=0;overflow=hidden;pointerEvents=1;strokeColor=inherit;fontSize=16;" parent="Dwmg8EtGotrLEjZZTlVN-27" vertex="1">
          <mxGeometry width="40" height="30" as="geometry">
            <mxRectangle width="40" height="30" as="alternateBounds" />
          </mxGeometry>
        </mxCell>
        <mxCell id="Dwmg8EtGotrLEjZZTlVN-29" value="OyuncuID" style="shape=partialRectangle;html=1;whiteSpace=wrap;connectable=0;fillColor=none;top=0;left=0;bottom=0;right=0;align=left;spacingLeft=6;overflow=hidden;strokeColor=inherit;fontSize=16;" parent="Dwmg8EtGotrLEjZZTlVN-27" vertex="1">
          <mxGeometry x="40" width="140" height="30" as="geometry">
            <mxRectangle width="140" height="30" as="alternateBounds" />
          </mxGeometry>
        </mxCell>
        <mxCell id="Dwmg8EtGotrLEjZZTlVN-30" value="" style="shape=tableRow;horizontal=0;startSize=0;swimlaneHead=0;swimlaneBody=0;top=0;left=0;bottom=0;right=0;collapsible=0;dropTarget=0;fillColor=none;points=[[0,0.5],[1,0.5]];portConstraint=eastwest;strokeColor=inherit;fontSize=16;" parent="Dwmg8EtGotrLEjZZTlVN-26" vertex="1">
          <mxGeometry y="60" width="180" height="30" as="geometry" />
        </mxCell>
        <mxCell id="Dwmg8EtGotrLEjZZTlVN-31" value="" style="shape=partialRectangle;html=1;whiteSpace=wrap;connectable=0;fillColor=none;top=0;left=0;bottom=0;right=0;overflow=hidden;strokeColor=inherit;fontSize=16;" parent="Dwmg8EtGotrLEjZZTlVN-30" vertex="1">
          <mxGeometry width="40" height="30" as="geometry">
            <mxRectangle width="40" height="30" as="alternateBounds" />
          </mxGeometry>
        </mxCell>
        <mxCell id="Dwmg8EtGotrLEjZZTlVN-32" value="Adı" style="shape=partialRectangle;html=1;whiteSpace=wrap;connectable=0;fillColor=none;top=0;left=0;bottom=0;right=0;align=left;spacingLeft=6;overflow=hidden;strokeColor=inherit;fontSize=16;" parent="Dwmg8EtGotrLEjZZTlVN-30" vertex="1">
          <mxGeometry x="40" width="140" height="30" as="geometry">
            <mxRectangle width="140" height="30" as="alternateBounds" />
          </mxGeometry>
        </mxCell>
        <mxCell id="Dwmg8EtGotrLEjZZTlVN-33" value="" style="shape=tableRow;horizontal=0;startSize=0;swimlaneHead=0;swimlaneBody=0;top=0;left=0;bottom=0;right=0;collapsible=0;dropTarget=0;fillColor=none;points=[[0,0.5],[1,0.5]];portConstraint=eastwest;strokeColor=inherit;fontSize=16;" parent="Dwmg8EtGotrLEjZZTlVN-26" vertex="1">
          <mxGeometry y="90" width="180" height="30" as="geometry" />
        </mxCell>
        <mxCell id="Dwmg8EtGotrLEjZZTlVN-34" value="FK" style="shape=partialRectangle;html=1;whiteSpace=wrap;connectable=0;fillColor=none;top=0;left=0;bottom=0;right=0;overflow=hidden;strokeColor=inherit;fontSize=16;" parent="Dwmg8EtGotrLEjZZTlVN-33" vertex="1">
          <mxGeometry width="40" height="30" as="geometry">
            <mxRectangle width="40" height="30" as="alternateBounds" />
          </mxGeometry>
        </mxCell>
        <mxCell id="Dwmg8EtGotrLEjZZTlVN-35" value="TakımID" style="shape=partialRectangle;html=1;whiteSpace=wrap;connectable=0;fillColor=none;top=0;left=0;bottom=0;right=0;align=left;spacingLeft=6;overflow=hidden;strokeColor=inherit;fontSize=16;" parent="Dwmg8EtGotrLEjZZTlVN-33" vertex="1">
          <mxGeometry x="40" width="140" height="30" as="geometry">
            <mxRectangle width="140" height="30" as="alternateBounds" />
          </mxGeometry>
        </mxCell>
        <mxCell id="rw01GV1wdH1ff7P7wg1b-0" value="" style="ellipse;whiteSpace=wrap;html=1;aspect=fixed;" parent="Dwmg8EtGotrLEjZZTlVN-33" vertex="1">
          <mxGeometry x="180" width="NaN" height="30" as="geometry">
            <mxRectangle width="NaN" height="30" as="alternateBounds" />
          </mxGeometry>
        </mxCell>
        <mxCell id="Dwmg8EtGotrLEjZZTlVN-39" style="shape=tableRow;horizontal=0;startSize=0;swimlaneHead=0;swimlaneBody=0;top=0;left=0;bottom=0;right=0;collapsible=0;dropTarget=0;fillColor=none;points=[[0,0.5],[1,0.5]];portConstraint=eastwest;strokeColor=inherit;fontSize=16;" parent="Dwmg8EtGotrLEjZZTlVN-26" vertex="1">
          <mxGeometry y="120" width="180" height="30" as="geometry" />
        </mxCell>
        <mxCell id="Dwmg8EtGotrLEjZZTlVN-40" style="shape=partialRectangle;html=1;whiteSpace=wrap;connectable=0;fillColor=none;top=0;left=0;bottom=0;right=0;overflow=hidden;strokeColor=inherit;fontSize=16;" parent="Dwmg8EtGotrLEjZZTlVN-39" vertex="1">
          <mxGeometry width="40" height="30" as="geometry">
            <mxRectangle width="40" height="30" as="alternateBounds" />
          </mxGeometry>
        </mxCell>
        <mxCell id="Dwmg8EtGotrLEjZZTlVN-41" value="ParaDegeri" style="shape=partialRectangle;html=1;whiteSpace=wrap;connectable=0;fillColor=none;top=0;left=0;bottom=0;right=0;align=left;spacingLeft=6;overflow=hidden;strokeColor=inherit;fontSize=16;" parent="Dwmg8EtGotrLEjZZTlVN-39" vertex="1">
          <mxGeometry x="40" width="140" height="30" as="geometry">
            <mxRectangle width="140" height="30" as="alternateBounds" />
          </mxGeometry>
        </mxCell>
        <mxCell id="aH4MFKl8BmY1fgAoLkil-108" style="shape=tableRow;horizontal=0;startSize=0;swimlaneHead=0;swimlaneBody=0;top=0;left=0;bottom=0;right=0;collapsible=0;dropTarget=0;fillColor=none;points=[[0,0.5],[1,0.5]];portConstraint=eastwest;strokeColor=inherit;fontSize=16;" parent="Dwmg8EtGotrLEjZZTlVN-26" vertex="1">
          <mxGeometry y="150" width="180" height="30" as="geometry" />
        </mxCell>
        <mxCell id="aH4MFKl8BmY1fgAoLkil-109" value="FK" style="shape=partialRectangle;html=1;whiteSpace=wrap;connectable=0;fillColor=none;top=0;left=0;bottom=0;right=0;overflow=hidden;strokeColor=inherit;fontSize=16;" parent="aH4MFKl8BmY1fgAoLkil-108" vertex="1">
          <mxGeometry width="40" height="30" as="geometry">
            <mxRectangle width="40" height="30" as="alternateBounds" />
          </mxGeometry>
        </mxCell>
        <mxCell id="aH4MFKl8BmY1fgAoLkil-110" value="BransID" style="shape=partialRectangle;html=1;whiteSpace=wrap;connectable=0;fillColor=none;top=0;left=0;bottom=0;right=0;align=left;spacingLeft=6;overflow=hidden;strokeColor=inherit;fontSize=16;" parent="aH4MFKl8BmY1fgAoLkil-108" vertex="1">
          <mxGeometry x="40" width="140" height="30" as="geometry">
            <mxRectangle width="140" height="30" as="alternateBounds" />
          </mxGeometry>
        </mxCell>
        <mxCell id="Dwmg8EtGotrLEjZZTlVN-45" value="Antrenor" style="shape=table;startSize=30;container=1;collapsible=0;childLayout=tableLayout;fixedRows=1;rowLines=0;fontStyle=0;strokeColor=default;fontSize=16;" parent="WIyWlLk6GJQsqaUBKTNV-1" vertex="1">
          <mxGeometry x="790" y="437" width="180" height="150" as="geometry" />
        </mxCell>
        <mxCell id="Dwmg8EtGotrLEjZZTlVN-46" value="" style="shape=tableRow;horizontal=0;startSize=0;swimlaneHead=0;swimlaneBody=0;top=0;left=0;bottom=0;right=0;collapsible=0;dropTarget=0;fillColor=none;points=[[0,0.5],[1,0.5]];portConstraint=eastwest;strokeColor=inherit;fontSize=16;" parent="Dwmg8EtGotrLEjZZTlVN-45" vertex="1">
          <mxGeometry y="30" width="180" height="30" as="geometry" />
        </mxCell>
        <mxCell id="Dwmg8EtGotrLEjZZTlVN-47" value="PK" style="shape=partialRectangle;html=1;whiteSpace=wrap;connectable=0;fillColor=none;top=0;left=0;bottom=0;right=0;overflow=hidden;pointerEvents=1;strokeColor=inherit;fontSize=16;" parent="Dwmg8EtGotrLEjZZTlVN-46" vertex="1">
          <mxGeometry width="40" height="30" as="geometry">
            <mxRectangle width="40" height="30" as="alternateBounds" />
          </mxGeometry>
        </mxCell>
        <mxCell id="Dwmg8EtGotrLEjZZTlVN-48" value="AntrenorID" style="shape=partialRectangle;html=1;whiteSpace=wrap;connectable=0;fillColor=none;top=0;left=0;bottom=0;right=0;align=left;spacingLeft=6;overflow=hidden;strokeColor=inherit;fontSize=16;" parent="Dwmg8EtGotrLEjZZTlVN-46" vertex="1">
          <mxGeometry x="40" width="140" height="30" as="geometry">
            <mxRectangle width="140" height="30" as="alternateBounds" />
          </mxGeometry>
        </mxCell>
        <mxCell id="Dwmg8EtGotrLEjZZTlVN-49" value="" style="shape=tableRow;horizontal=0;startSize=0;swimlaneHead=0;swimlaneBody=0;top=0;left=0;bottom=0;right=0;collapsible=0;dropTarget=0;fillColor=none;points=[[0,0.5],[1,0.5]];portConstraint=eastwest;strokeColor=inherit;fontSize=16;" parent="Dwmg8EtGotrLEjZZTlVN-45" vertex="1">
          <mxGeometry y="60" width="180" height="30" as="geometry" />
        </mxCell>
        <mxCell id="Dwmg8EtGotrLEjZZTlVN-50" value="" style="shape=partialRectangle;html=1;whiteSpace=wrap;connectable=0;fillColor=none;top=0;left=0;bottom=0;right=0;overflow=hidden;strokeColor=inherit;fontSize=16;" parent="Dwmg8EtGotrLEjZZTlVN-49" vertex="1">
          <mxGeometry width="40" height="30" as="geometry">
            <mxRectangle width="40" height="30" as="alternateBounds" />
          </mxGeometry>
        </mxCell>
        <mxCell id="Dwmg8EtGotrLEjZZTlVN-51" value="Adı" style="shape=partialRectangle;html=1;whiteSpace=wrap;connectable=0;fillColor=none;top=0;left=0;bottom=0;right=0;align=left;spacingLeft=6;overflow=hidden;strokeColor=inherit;fontSize=16;" parent="Dwmg8EtGotrLEjZZTlVN-49" vertex="1">
          <mxGeometry x="40" width="140" height="30" as="geometry">
            <mxRectangle width="140" height="30" as="alternateBounds" />
          </mxGeometry>
        </mxCell>
        <mxCell id="Dwmg8EtGotrLEjZZTlVN-52" value="" style="shape=tableRow;horizontal=0;startSize=0;swimlaneHead=0;swimlaneBody=0;top=0;left=0;bottom=0;right=0;collapsible=0;dropTarget=0;fillColor=none;points=[[0,0.5],[1,0.5]];portConstraint=eastwest;strokeColor=inherit;fontSize=16;" parent="Dwmg8EtGotrLEjZZTlVN-45" vertex="1">
          <mxGeometry y="90" width="180" height="30" as="geometry" />
        </mxCell>
        <mxCell id="Dwmg8EtGotrLEjZZTlVN-53" value="FK" style="shape=partialRectangle;html=1;whiteSpace=wrap;connectable=0;fillColor=none;top=0;left=0;bottom=0;right=0;overflow=hidden;strokeColor=inherit;fontSize=16;" parent="Dwmg8EtGotrLEjZZTlVN-52" vertex="1">
          <mxGeometry width="40" height="30" as="geometry">
            <mxRectangle width="40" height="30" as="alternateBounds" />
          </mxGeometry>
        </mxCell>
        <mxCell id="Dwmg8EtGotrLEjZZTlVN-54" value="TakımID" style="shape=partialRectangle;html=1;whiteSpace=wrap;connectable=0;fillColor=none;top=0;left=0;bottom=0;right=0;align=left;spacingLeft=6;overflow=hidden;strokeColor=inherit;fontSize=16;" parent="Dwmg8EtGotrLEjZZTlVN-52" vertex="1">
          <mxGeometry x="40" width="140" height="30" as="geometry">
            <mxRectangle width="140" height="30" as="alternateBounds" />
          </mxGeometry>
        </mxCell>
        <mxCell id="rsTdlN0C95ZgyZTxl1ph-46" style="shape=tableRow;horizontal=0;startSize=0;swimlaneHead=0;swimlaneBody=0;top=0;left=0;bottom=0;right=0;collapsible=0;dropTarget=0;fillColor=none;points=[[0,0.5],[1,0.5]];portConstraint=eastwest;strokeColor=inherit;fontSize=16;" vertex="1" parent="Dwmg8EtGotrLEjZZTlVN-45">
          <mxGeometry y="120" width="180" height="30" as="geometry" />
        </mxCell>
        <mxCell id="rsTdlN0C95ZgyZTxl1ph-47" value="FK" style="shape=partialRectangle;html=1;whiteSpace=wrap;connectable=0;fillColor=none;top=0;left=0;bottom=0;right=0;overflow=hidden;strokeColor=inherit;fontSize=16;" vertex="1" parent="rsTdlN0C95ZgyZTxl1ph-46">
          <mxGeometry width="40" height="30" as="geometry">
            <mxRectangle width="40" height="30" as="alternateBounds" />
          </mxGeometry>
        </mxCell>
        <mxCell id="rsTdlN0C95ZgyZTxl1ph-48" value="BransID" style="shape=partialRectangle;html=1;whiteSpace=wrap;connectable=0;fillColor=none;top=0;left=0;bottom=0;right=0;align=left;spacingLeft=6;overflow=hidden;strokeColor=inherit;fontSize=16;" vertex="1" parent="rsTdlN0C95ZgyZTxl1ph-46">
          <mxGeometry x="40" width="140" height="30" as="geometry">
            <mxRectangle width="140" height="30" as="alternateBounds" />
          </mxGeometry>
        </mxCell>
        <mxCell id="Dwmg8EtGotrLEjZZTlVN-55" value="Tesıs" style="shape=table;startSize=30;container=1;collapsible=0;childLayout=tableLayout;fixedRows=1;rowLines=0;fontStyle=0;strokeColor=default;fontSize=16;" parent="WIyWlLk6GJQsqaUBKTNV-1" vertex="1">
          <mxGeometry x="310" y="70" width="180" height="150" as="geometry" />
        </mxCell>
        <mxCell id="Dwmg8EtGotrLEjZZTlVN-56" value="" style="shape=tableRow;horizontal=0;startSize=0;swimlaneHead=0;swimlaneBody=0;top=0;left=0;bottom=0;right=0;collapsible=0;dropTarget=0;fillColor=none;points=[[0,0.5],[1,0.5]];portConstraint=eastwest;strokeColor=inherit;fontSize=16;" parent="Dwmg8EtGotrLEjZZTlVN-55" vertex="1">
          <mxGeometry y="30" width="180" height="30" as="geometry" />
        </mxCell>
        <mxCell id="Dwmg8EtGotrLEjZZTlVN-57" value="PK" style="shape=partialRectangle;html=1;whiteSpace=wrap;connectable=0;fillColor=none;top=0;left=0;bottom=0;right=0;overflow=hidden;pointerEvents=1;strokeColor=inherit;fontSize=16;" parent="Dwmg8EtGotrLEjZZTlVN-56" vertex="1">
          <mxGeometry width="40" height="30" as="geometry">
            <mxRectangle width="40" height="30" as="alternateBounds" />
          </mxGeometry>
        </mxCell>
        <mxCell id="Dwmg8EtGotrLEjZZTlVN-58" value="TesısID" style="shape=partialRectangle;html=1;whiteSpace=wrap;connectable=0;fillColor=none;top=0;left=0;bottom=0;right=0;align=left;spacingLeft=6;overflow=hidden;strokeColor=inherit;fontSize=16;" parent="Dwmg8EtGotrLEjZZTlVN-56" vertex="1">
          <mxGeometry x="40" width="140" height="30" as="geometry">
            <mxRectangle width="140" height="30" as="alternateBounds" />
          </mxGeometry>
        </mxCell>
        <mxCell id="Dwmg8EtGotrLEjZZTlVN-59" value="" style="shape=tableRow;horizontal=0;startSize=0;swimlaneHead=0;swimlaneBody=0;top=0;left=0;bottom=0;right=0;collapsible=0;dropTarget=0;fillColor=none;points=[[0,0.5],[1,0.5]];portConstraint=eastwest;strokeColor=inherit;fontSize=16;" parent="Dwmg8EtGotrLEjZZTlVN-55" vertex="1">
          <mxGeometry y="60" width="180" height="30" as="geometry" />
        </mxCell>
        <mxCell id="Dwmg8EtGotrLEjZZTlVN-60" value="" style="shape=partialRectangle;html=1;whiteSpace=wrap;connectable=0;fillColor=none;top=0;left=0;bottom=0;right=0;overflow=hidden;strokeColor=inherit;fontSize=16;" parent="Dwmg8EtGotrLEjZZTlVN-59" vertex="1">
          <mxGeometry width="40" height="30" as="geometry">
            <mxRectangle width="40" height="30" as="alternateBounds" />
          </mxGeometry>
        </mxCell>
        <mxCell id="Dwmg8EtGotrLEjZZTlVN-61" value="Adı" style="shape=partialRectangle;html=1;whiteSpace=wrap;connectable=0;fillColor=none;top=0;left=0;bottom=0;right=0;align=left;spacingLeft=6;overflow=hidden;strokeColor=inherit;fontSize=16;" parent="Dwmg8EtGotrLEjZZTlVN-59" vertex="1">
          <mxGeometry x="40" width="140" height="30" as="geometry">
            <mxRectangle width="140" height="30" as="alternateBounds" />
          </mxGeometry>
        </mxCell>
        <mxCell id="Dwmg8EtGotrLEjZZTlVN-62" value="" style="shape=tableRow;horizontal=0;startSize=0;swimlaneHead=0;swimlaneBody=0;top=0;left=0;bottom=0;right=0;collapsible=0;dropTarget=0;fillColor=none;points=[[0,0.5],[1,0.5]];portConstraint=eastwest;strokeColor=inherit;fontSize=16;" parent="Dwmg8EtGotrLEjZZTlVN-55" vertex="1">
          <mxGeometry y="90" width="180" height="30" as="geometry" />
        </mxCell>
        <mxCell id="Dwmg8EtGotrLEjZZTlVN-63" value="" style="shape=partialRectangle;html=1;whiteSpace=wrap;connectable=0;fillColor=none;top=0;left=0;bottom=0;right=0;overflow=hidden;strokeColor=inherit;fontSize=16;" parent="Dwmg8EtGotrLEjZZTlVN-62" vertex="1">
          <mxGeometry width="40" height="30" as="geometry">
            <mxRectangle width="40" height="30" as="alternateBounds" />
          </mxGeometry>
        </mxCell>
        <mxCell id="Dwmg8EtGotrLEjZZTlVN-64" value="Sehır" style="shape=partialRectangle;html=1;whiteSpace=wrap;connectable=0;fillColor=none;top=0;left=0;bottom=0;right=0;align=left;spacingLeft=6;overflow=hidden;strokeColor=inherit;fontSize=16;" parent="Dwmg8EtGotrLEjZZTlVN-62" vertex="1">
          <mxGeometry x="40" width="140" height="30" as="geometry">
            <mxRectangle width="140" height="30" as="alternateBounds" />
          </mxGeometry>
        </mxCell>
        <mxCell id="aH4MFKl8BmY1fgAoLkil-44" style="shape=tableRow;horizontal=0;startSize=0;swimlaneHead=0;swimlaneBody=0;top=0;left=0;bottom=0;right=0;collapsible=0;dropTarget=0;fillColor=none;points=[[0,0.5],[1,0.5]];portConstraint=eastwest;strokeColor=inherit;fontSize=16;" parent="Dwmg8EtGotrLEjZZTlVN-55" vertex="1">
          <mxGeometry y="120" width="180" height="30" as="geometry" />
        </mxCell>
        <mxCell id="aH4MFKl8BmY1fgAoLkil-45" value="FK" style="shape=partialRectangle;html=1;whiteSpace=wrap;connectable=0;fillColor=none;top=0;left=0;bottom=0;right=0;overflow=hidden;strokeColor=inherit;fontSize=16;" parent="aH4MFKl8BmY1fgAoLkil-44" vertex="1">
          <mxGeometry width="40" height="30" as="geometry">
            <mxRectangle width="40" height="30" as="alternateBounds" />
          </mxGeometry>
        </mxCell>
        <mxCell id="aH4MFKl8BmY1fgAoLkil-46" value="TakımID" style="shape=partialRectangle;html=1;whiteSpace=wrap;connectable=0;fillColor=none;top=0;left=0;bottom=0;right=0;align=left;spacingLeft=6;overflow=hidden;strokeColor=inherit;fontSize=16;" parent="aH4MFKl8BmY1fgAoLkil-44" vertex="1">
          <mxGeometry x="40" width="140" height="30" as="geometry">
            <mxRectangle width="140" height="30" as="alternateBounds" />
          </mxGeometry>
        </mxCell>
        <mxCell id="Dwmg8EtGotrLEjZZTlVN-65" value="Personel" style="shape=table;startSize=30;container=1;collapsible=0;childLayout=tableLayout;fixedRows=1;rowLines=0;fontStyle=0;strokeColor=default;fontSize=16;" parent="WIyWlLk6GJQsqaUBKTNV-1" vertex="1">
          <mxGeometry y="70" width="180" height="150" as="geometry" />
        </mxCell>
        <mxCell id="Dwmg8EtGotrLEjZZTlVN-66" value="" style="shape=tableRow;horizontal=0;startSize=0;swimlaneHead=0;swimlaneBody=0;top=0;left=0;bottom=0;right=0;collapsible=0;dropTarget=0;fillColor=none;points=[[0,0.5],[1,0.5]];portConstraint=eastwest;strokeColor=inherit;fontSize=16;" parent="Dwmg8EtGotrLEjZZTlVN-65" vertex="1">
          <mxGeometry y="30" width="180" height="30" as="geometry" />
        </mxCell>
        <mxCell id="Dwmg8EtGotrLEjZZTlVN-67" value="PK" style="shape=partialRectangle;html=1;whiteSpace=wrap;connectable=0;fillColor=none;top=0;left=0;bottom=0;right=0;overflow=hidden;pointerEvents=1;strokeColor=inherit;fontSize=16;" parent="Dwmg8EtGotrLEjZZTlVN-66" vertex="1">
          <mxGeometry width="40" height="30" as="geometry">
            <mxRectangle width="40" height="30" as="alternateBounds" />
          </mxGeometry>
        </mxCell>
        <mxCell id="Dwmg8EtGotrLEjZZTlVN-68" value="PersonelID" style="shape=partialRectangle;html=1;whiteSpace=wrap;connectable=0;fillColor=none;top=0;left=0;bottom=0;right=0;align=left;spacingLeft=6;overflow=hidden;strokeColor=inherit;fontSize=16;" parent="Dwmg8EtGotrLEjZZTlVN-66" vertex="1">
          <mxGeometry x="40" width="140" height="30" as="geometry">
            <mxRectangle width="140" height="30" as="alternateBounds" />
          </mxGeometry>
        </mxCell>
        <mxCell id="Dwmg8EtGotrLEjZZTlVN-69" value="" style="shape=tableRow;horizontal=0;startSize=0;swimlaneHead=0;swimlaneBody=0;top=0;left=0;bottom=0;right=0;collapsible=0;dropTarget=0;fillColor=none;points=[[0,0.5],[1,0.5]];portConstraint=eastwest;strokeColor=inherit;fontSize=16;" parent="Dwmg8EtGotrLEjZZTlVN-65" vertex="1">
          <mxGeometry y="60" width="180" height="30" as="geometry" />
        </mxCell>
        <mxCell id="Dwmg8EtGotrLEjZZTlVN-70" value="" style="shape=partialRectangle;html=1;whiteSpace=wrap;connectable=0;fillColor=none;top=0;left=0;bottom=0;right=0;overflow=hidden;strokeColor=inherit;fontSize=16;" parent="Dwmg8EtGotrLEjZZTlVN-69" vertex="1">
          <mxGeometry width="40" height="30" as="geometry">
            <mxRectangle width="40" height="30" as="alternateBounds" />
          </mxGeometry>
        </mxCell>
        <mxCell id="Dwmg8EtGotrLEjZZTlVN-71" value="Adı" style="shape=partialRectangle;html=1;whiteSpace=wrap;connectable=0;fillColor=none;top=0;left=0;bottom=0;right=0;align=left;spacingLeft=6;overflow=hidden;strokeColor=inherit;fontSize=16;" parent="Dwmg8EtGotrLEjZZTlVN-69" vertex="1">
          <mxGeometry x="40" width="140" height="30" as="geometry">
            <mxRectangle width="140" height="30" as="alternateBounds" />
          </mxGeometry>
        </mxCell>
        <mxCell id="Dwmg8EtGotrLEjZZTlVN-72" value="" style="shape=tableRow;horizontal=0;startSize=0;swimlaneHead=0;swimlaneBody=0;top=0;left=0;bottom=0;right=0;collapsible=0;dropTarget=0;fillColor=none;points=[[0,0.5],[1,0.5]];portConstraint=eastwest;strokeColor=inherit;fontSize=16;" parent="Dwmg8EtGotrLEjZZTlVN-65" vertex="1">
          <mxGeometry y="90" width="180" height="30" as="geometry" />
        </mxCell>
        <mxCell id="Dwmg8EtGotrLEjZZTlVN-73" value="" style="shape=partialRectangle;html=1;whiteSpace=wrap;connectable=0;fillColor=none;top=0;left=0;bottom=0;right=0;overflow=hidden;strokeColor=inherit;fontSize=16;" parent="Dwmg8EtGotrLEjZZTlVN-72" vertex="1">
          <mxGeometry width="40" height="30" as="geometry">
            <mxRectangle width="40" height="30" as="alternateBounds" />
          </mxGeometry>
        </mxCell>
        <mxCell id="Dwmg8EtGotrLEjZZTlVN-74" value="Gorevı" style="shape=partialRectangle;html=1;whiteSpace=wrap;connectable=0;fillColor=none;top=0;left=0;bottom=0;right=0;align=left;spacingLeft=6;overflow=hidden;strokeColor=inherit;fontSize=16;" parent="Dwmg8EtGotrLEjZZTlVN-72" vertex="1">
          <mxGeometry x="40" width="140" height="30" as="geometry">
            <mxRectangle width="140" height="30" as="alternateBounds" />
          </mxGeometry>
        </mxCell>
        <mxCell id="Dwmg8EtGotrLEjZZTlVN-75" style="shape=tableRow;horizontal=0;startSize=0;swimlaneHead=0;swimlaneBody=0;top=0;left=0;bottom=0;right=0;collapsible=0;dropTarget=0;fillColor=none;points=[[0,0.5],[1,0.5]];portConstraint=eastwest;strokeColor=inherit;fontSize=16;" parent="Dwmg8EtGotrLEjZZTlVN-65" vertex="1">
          <mxGeometry y="120" width="180" height="30" as="geometry" />
        </mxCell>
        <mxCell id="Dwmg8EtGotrLEjZZTlVN-76" value="FK" style="shape=partialRectangle;html=1;whiteSpace=wrap;connectable=0;fillColor=none;top=0;left=0;bottom=0;right=0;overflow=hidden;strokeColor=inherit;fontSize=16;" parent="Dwmg8EtGotrLEjZZTlVN-75" vertex="1">
          <mxGeometry width="40" height="30" as="geometry">
            <mxRectangle width="40" height="30" as="alternateBounds" />
          </mxGeometry>
        </mxCell>
        <mxCell id="Dwmg8EtGotrLEjZZTlVN-77" value="TesısID" style="shape=partialRectangle;html=1;whiteSpace=wrap;connectable=0;fillColor=none;top=0;left=0;bottom=0;right=0;align=left;spacingLeft=6;overflow=hidden;strokeColor=inherit;fontSize=16;" parent="Dwmg8EtGotrLEjZZTlVN-75" vertex="1">
          <mxGeometry x="40" width="140" height="30" as="geometry">
            <mxRectangle width="140" height="30" as="alternateBounds" />
          </mxGeometry>
        </mxCell>
        <mxCell id="Dwmg8EtGotrLEjZZTlVN-97" value="Antrenman" style="shape=table;startSize=30;container=1;collapsible=0;childLayout=tableLayout;fixedRows=1;rowLines=0;fontStyle=0;strokeColor=default;fontSize=16;" parent="WIyWlLk6GJQsqaUBKTNV-1" vertex="1">
          <mxGeometry x="800" y="60" width="180" height="150" as="geometry" />
        </mxCell>
        <mxCell id="Dwmg8EtGotrLEjZZTlVN-98" value="" style="shape=tableRow;horizontal=0;startSize=0;swimlaneHead=0;swimlaneBody=0;top=0;left=0;bottom=0;right=0;collapsible=0;dropTarget=0;fillColor=none;points=[[0,0.5],[1,0.5]];portConstraint=eastwest;strokeColor=inherit;fontSize=16;" parent="Dwmg8EtGotrLEjZZTlVN-97" vertex="1">
          <mxGeometry y="30" width="180" height="30" as="geometry" />
        </mxCell>
        <mxCell id="Dwmg8EtGotrLEjZZTlVN-99" value="PK" style="shape=partialRectangle;html=1;whiteSpace=wrap;connectable=0;fillColor=none;top=0;left=0;bottom=0;right=0;overflow=hidden;pointerEvents=1;strokeColor=inherit;fontSize=16;" parent="Dwmg8EtGotrLEjZZTlVN-98" vertex="1">
          <mxGeometry width="40" height="30" as="geometry">
            <mxRectangle width="40" height="30" as="alternateBounds" />
          </mxGeometry>
        </mxCell>
        <mxCell id="Dwmg8EtGotrLEjZZTlVN-100" value="AntrenmanID" style="shape=partialRectangle;html=1;whiteSpace=wrap;connectable=0;fillColor=none;top=0;left=0;bottom=0;right=0;align=left;spacingLeft=6;overflow=hidden;strokeColor=inherit;fontSize=16;" parent="Dwmg8EtGotrLEjZZTlVN-98" vertex="1">
          <mxGeometry x="40" width="140" height="30" as="geometry">
            <mxRectangle width="140" height="30" as="alternateBounds" />
          </mxGeometry>
        </mxCell>
        <mxCell id="Dwmg8EtGotrLEjZZTlVN-101" value="" style="shape=tableRow;horizontal=0;startSize=0;swimlaneHead=0;swimlaneBody=0;top=0;left=0;bottom=0;right=0;collapsible=0;dropTarget=0;fillColor=none;points=[[0,0.5],[1,0.5]];portConstraint=eastwest;strokeColor=inherit;fontSize=16;" parent="Dwmg8EtGotrLEjZZTlVN-97" vertex="1">
          <mxGeometry y="60" width="180" height="30" as="geometry" />
        </mxCell>
        <mxCell id="Dwmg8EtGotrLEjZZTlVN-102" value="FK" style="shape=partialRectangle;html=1;whiteSpace=wrap;connectable=0;fillColor=none;top=0;left=0;bottom=0;right=0;overflow=hidden;strokeColor=inherit;fontSize=16;" parent="Dwmg8EtGotrLEjZZTlVN-101" vertex="1">
          <mxGeometry width="40" height="30" as="geometry">
            <mxRectangle width="40" height="30" as="alternateBounds" />
          </mxGeometry>
        </mxCell>
        <mxCell id="Dwmg8EtGotrLEjZZTlVN-103" value="BransID" style="shape=partialRectangle;html=1;whiteSpace=wrap;connectable=0;fillColor=none;top=0;left=0;bottom=0;right=0;align=left;spacingLeft=6;overflow=hidden;strokeColor=inherit;fontSize=16;" parent="Dwmg8EtGotrLEjZZTlVN-101" vertex="1">
          <mxGeometry x="40" width="140" height="30" as="geometry">
            <mxRectangle width="140" height="30" as="alternateBounds" />
          </mxGeometry>
        </mxCell>
        <mxCell id="Dwmg8EtGotrLEjZZTlVN-104" value="" style="shape=tableRow;horizontal=0;startSize=0;swimlaneHead=0;swimlaneBody=0;top=0;left=0;bottom=0;right=0;collapsible=0;dropTarget=0;fillColor=none;points=[[0,0.5],[1,0.5]];portConstraint=eastwest;strokeColor=inherit;fontSize=16;" parent="Dwmg8EtGotrLEjZZTlVN-97" vertex="1">
          <mxGeometry y="90" width="180" height="30" as="geometry" />
        </mxCell>
        <mxCell id="Dwmg8EtGotrLEjZZTlVN-105" value="FK" style="shape=partialRectangle;html=1;whiteSpace=wrap;connectable=0;fillColor=none;top=0;left=0;bottom=0;right=0;overflow=hidden;strokeColor=inherit;fontSize=16;" parent="Dwmg8EtGotrLEjZZTlVN-104" vertex="1">
          <mxGeometry width="40" height="30" as="geometry">
            <mxRectangle width="40" height="30" as="alternateBounds" />
          </mxGeometry>
        </mxCell>
        <mxCell id="Dwmg8EtGotrLEjZZTlVN-106" value="TesısID" style="shape=partialRectangle;html=1;whiteSpace=wrap;connectable=0;fillColor=none;top=0;left=0;bottom=0;right=0;align=left;spacingLeft=6;overflow=hidden;strokeColor=inherit;fontSize=16;" parent="Dwmg8EtGotrLEjZZTlVN-104" vertex="1">
          <mxGeometry x="40" width="140" height="30" as="geometry">
            <mxRectangle width="140" height="30" as="alternateBounds" />
          </mxGeometry>
        </mxCell>
        <mxCell id="Dwmg8EtGotrLEjZZTlVN-107" style="shape=tableRow;horizontal=0;startSize=0;swimlaneHead=0;swimlaneBody=0;top=0;left=0;bottom=0;right=0;collapsible=0;dropTarget=0;fillColor=none;points=[[0,0.5],[1,0.5]];portConstraint=eastwest;strokeColor=inherit;fontSize=16;" parent="Dwmg8EtGotrLEjZZTlVN-97" vertex="1">
          <mxGeometry y="120" width="180" height="30" as="geometry" />
        </mxCell>
        <mxCell id="Dwmg8EtGotrLEjZZTlVN-108" style="shape=partialRectangle;html=1;whiteSpace=wrap;connectable=0;fillColor=none;top=0;left=0;bottom=0;right=0;overflow=hidden;strokeColor=inherit;fontSize=16;" parent="Dwmg8EtGotrLEjZZTlVN-107" vertex="1">
          <mxGeometry width="40" height="30" as="geometry">
            <mxRectangle width="40" height="30" as="alternateBounds" />
          </mxGeometry>
        </mxCell>
        <mxCell id="Dwmg8EtGotrLEjZZTlVN-109" value="Tarıh" style="shape=partialRectangle;html=1;whiteSpace=wrap;connectable=0;fillColor=none;top=0;left=0;bottom=0;right=0;align=left;spacingLeft=6;overflow=hidden;strokeColor=inherit;fontSize=16;" parent="Dwmg8EtGotrLEjZZTlVN-107" vertex="1">
          <mxGeometry x="40" width="140" height="30" as="geometry">
            <mxRectangle width="140" height="30" as="alternateBounds" />
          </mxGeometry>
        </mxCell>
        <mxCell id="Dwmg8EtGotrLEjZZTlVN-110" value="Sponsor" style="shape=table;startSize=30;container=1;collapsible=0;childLayout=tableLayout;fixedRows=1;rowLines=0;fontStyle=0;strokeColor=default;fontSize=16;" parent="WIyWlLk6GJQsqaUBKTNV-1" vertex="1">
          <mxGeometry x="230" y="570" width="180" height="120" as="geometry" />
        </mxCell>
        <mxCell id="Dwmg8EtGotrLEjZZTlVN-111" value="" style="shape=tableRow;horizontal=0;startSize=0;swimlaneHead=0;swimlaneBody=0;top=0;left=0;bottom=0;right=0;collapsible=0;dropTarget=0;fillColor=none;points=[[0,0.5],[1,0.5]];portConstraint=eastwest;strokeColor=inherit;fontSize=16;" parent="Dwmg8EtGotrLEjZZTlVN-110" vertex="1">
          <mxGeometry y="30" width="180" height="30" as="geometry" />
        </mxCell>
        <mxCell id="Dwmg8EtGotrLEjZZTlVN-112" value="PK" style="shape=partialRectangle;html=1;whiteSpace=wrap;connectable=0;fillColor=none;top=0;left=0;bottom=0;right=0;overflow=hidden;pointerEvents=1;strokeColor=inherit;fontSize=16;" parent="Dwmg8EtGotrLEjZZTlVN-111" vertex="1">
          <mxGeometry width="40" height="30" as="geometry">
            <mxRectangle width="40" height="30" as="alternateBounds" />
          </mxGeometry>
        </mxCell>
        <mxCell id="Dwmg8EtGotrLEjZZTlVN-113" value="SponsorID" style="shape=partialRectangle;html=1;whiteSpace=wrap;connectable=0;fillColor=none;top=0;left=0;bottom=0;right=0;align=left;spacingLeft=6;overflow=hidden;strokeColor=inherit;fontSize=16;" parent="Dwmg8EtGotrLEjZZTlVN-111" vertex="1">
          <mxGeometry x="40" width="140" height="30" as="geometry">
            <mxRectangle width="140" height="30" as="alternateBounds" />
          </mxGeometry>
        </mxCell>
        <mxCell id="Dwmg8EtGotrLEjZZTlVN-114" value="" style="shape=tableRow;horizontal=0;startSize=0;swimlaneHead=0;swimlaneBody=0;top=0;left=0;bottom=0;right=0;collapsible=0;dropTarget=0;fillColor=none;points=[[0,0.5],[1,0.5]];portConstraint=eastwest;strokeColor=inherit;fontSize=16;" parent="Dwmg8EtGotrLEjZZTlVN-110" vertex="1">
          <mxGeometry y="60" width="180" height="30" as="geometry" />
        </mxCell>
        <mxCell id="Dwmg8EtGotrLEjZZTlVN-115" value="" style="shape=partialRectangle;html=1;whiteSpace=wrap;connectable=0;fillColor=none;top=0;left=0;bottom=0;right=0;overflow=hidden;strokeColor=inherit;fontSize=16;" parent="Dwmg8EtGotrLEjZZTlVN-114" vertex="1">
          <mxGeometry width="40" height="30" as="geometry">
            <mxRectangle width="40" height="30" as="alternateBounds" />
          </mxGeometry>
        </mxCell>
        <mxCell id="Dwmg8EtGotrLEjZZTlVN-116" value="Adı" style="shape=partialRectangle;html=1;whiteSpace=wrap;connectable=0;fillColor=none;top=0;left=0;bottom=0;right=0;align=left;spacingLeft=6;overflow=hidden;strokeColor=inherit;fontSize=16;" parent="Dwmg8EtGotrLEjZZTlVN-114" vertex="1">
          <mxGeometry x="40" width="140" height="30" as="geometry">
            <mxRectangle width="140" height="30" as="alternateBounds" />
          </mxGeometry>
        </mxCell>
        <mxCell id="Dwmg8EtGotrLEjZZTlVN-117" value="" style="shape=tableRow;horizontal=0;startSize=0;swimlaneHead=0;swimlaneBody=0;top=0;left=0;bottom=0;right=0;collapsible=0;dropTarget=0;fillColor=none;points=[[0,0.5],[1,0.5]];portConstraint=eastwest;strokeColor=inherit;fontSize=16;" parent="Dwmg8EtGotrLEjZZTlVN-110" vertex="1">
          <mxGeometry y="90" width="180" height="30" as="geometry" />
        </mxCell>
        <mxCell id="Dwmg8EtGotrLEjZZTlVN-118" value="FK" style="shape=partialRectangle;html=1;whiteSpace=wrap;connectable=0;fillColor=none;top=0;left=0;bottom=0;right=0;overflow=hidden;strokeColor=inherit;fontSize=16;" parent="Dwmg8EtGotrLEjZZTlVN-117" vertex="1">
          <mxGeometry width="40" height="30" as="geometry">
            <mxRectangle width="40" height="30" as="alternateBounds" />
          </mxGeometry>
        </mxCell>
        <mxCell id="Dwmg8EtGotrLEjZZTlVN-119" value="TakımID" style="shape=partialRectangle;html=1;whiteSpace=wrap;connectable=0;fillColor=none;top=0;left=0;bottom=0;right=0;align=left;spacingLeft=6;overflow=hidden;strokeColor=inherit;fontSize=16;" parent="Dwmg8EtGotrLEjZZTlVN-117" vertex="1">
          <mxGeometry x="40" width="140" height="30" as="geometry">
            <mxRectangle width="140" height="30" as="alternateBounds" />
          </mxGeometry>
        </mxCell>
        <mxCell id="Dwmg8EtGotrLEjZZTlVN-123" value="Doktor" style="shape=table;startSize=30;container=1;collapsible=0;childLayout=tableLayout;fixedRows=1;rowLines=0;fontStyle=0;strokeColor=default;fontSize=16;" parent="WIyWlLk6GJQsqaUBKTNV-1" vertex="1">
          <mxGeometry x="1150" y="90" width="180" height="120" as="geometry" />
        </mxCell>
        <mxCell id="Dwmg8EtGotrLEjZZTlVN-124" value="" style="shape=tableRow;horizontal=0;startSize=0;swimlaneHead=0;swimlaneBody=0;top=0;left=0;bottom=0;right=0;collapsible=0;dropTarget=0;fillColor=none;points=[[0,0.5],[1,0.5]];portConstraint=eastwest;strokeColor=inherit;fontSize=16;" parent="Dwmg8EtGotrLEjZZTlVN-123" vertex="1">
          <mxGeometry y="30" width="180" height="30" as="geometry" />
        </mxCell>
        <mxCell id="Dwmg8EtGotrLEjZZTlVN-125" value="PK" style="shape=partialRectangle;html=1;whiteSpace=wrap;connectable=0;fillColor=none;top=0;left=0;bottom=0;right=0;overflow=hidden;pointerEvents=1;strokeColor=inherit;fontSize=16;" parent="Dwmg8EtGotrLEjZZTlVN-124" vertex="1">
          <mxGeometry width="40" height="30" as="geometry">
            <mxRectangle width="40" height="30" as="alternateBounds" />
          </mxGeometry>
        </mxCell>
        <mxCell id="Dwmg8EtGotrLEjZZTlVN-126" value="DoktorID" style="shape=partialRectangle;html=1;whiteSpace=wrap;connectable=0;fillColor=none;top=0;left=0;bottom=0;right=0;align=left;spacingLeft=6;overflow=hidden;strokeColor=inherit;fontSize=16;" parent="Dwmg8EtGotrLEjZZTlVN-124" vertex="1">
          <mxGeometry x="40" width="140" height="30" as="geometry">
            <mxRectangle width="140" height="30" as="alternateBounds" />
          </mxGeometry>
        </mxCell>
        <mxCell id="Dwmg8EtGotrLEjZZTlVN-127" value="" style="shape=tableRow;horizontal=0;startSize=0;swimlaneHead=0;swimlaneBody=0;top=0;left=0;bottom=0;right=0;collapsible=0;dropTarget=0;fillColor=none;points=[[0,0.5],[1,0.5]];portConstraint=eastwest;strokeColor=inherit;fontSize=16;" parent="Dwmg8EtGotrLEjZZTlVN-123" vertex="1">
          <mxGeometry y="60" width="180" height="30" as="geometry" />
        </mxCell>
        <mxCell id="Dwmg8EtGotrLEjZZTlVN-128" value="" style="shape=partialRectangle;html=1;whiteSpace=wrap;connectable=0;fillColor=none;top=0;left=0;bottom=0;right=0;overflow=hidden;strokeColor=inherit;fontSize=16;" parent="Dwmg8EtGotrLEjZZTlVN-127" vertex="1">
          <mxGeometry width="40" height="30" as="geometry">
            <mxRectangle width="40" height="30" as="alternateBounds" />
          </mxGeometry>
        </mxCell>
        <mxCell id="Dwmg8EtGotrLEjZZTlVN-129" value="Adı" style="shape=partialRectangle;html=1;whiteSpace=wrap;connectable=0;fillColor=none;top=0;left=0;bottom=0;right=0;align=left;spacingLeft=6;overflow=hidden;strokeColor=inherit;fontSize=16;" parent="Dwmg8EtGotrLEjZZTlVN-127" vertex="1">
          <mxGeometry x="40" width="140" height="30" as="geometry">
            <mxRectangle width="140" height="30" as="alternateBounds" />
          </mxGeometry>
        </mxCell>
        <mxCell id="aH4MFKl8BmY1fgAoLkil-41" style="shape=tableRow;horizontal=0;startSize=0;swimlaneHead=0;swimlaneBody=0;top=0;left=0;bottom=0;right=0;collapsible=0;dropTarget=0;fillColor=none;points=[[0,0.5],[1,0.5]];portConstraint=eastwest;strokeColor=inherit;fontSize=16;" parent="Dwmg8EtGotrLEjZZTlVN-123" vertex="1">
          <mxGeometry y="90" width="180" height="30" as="geometry" />
        </mxCell>
        <mxCell id="aH4MFKl8BmY1fgAoLkil-42" value="FK" style="shape=partialRectangle;html=1;whiteSpace=wrap;connectable=0;fillColor=none;top=0;left=0;bottom=0;right=0;overflow=hidden;strokeColor=inherit;fontSize=16;" parent="aH4MFKl8BmY1fgAoLkil-41" vertex="1">
          <mxGeometry width="40" height="30" as="geometry">
            <mxRectangle width="40" height="30" as="alternateBounds" />
          </mxGeometry>
        </mxCell>
        <mxCell id="aH4MFKl8BmY1fgAoLkil-43" value="BransID" style="shape=partialRectangle;html=1;whiteSpace=wrap;connectable=0;fillColor=none;top=0;left=0;bottom=0;right=0;align=left;spacingLeft=6;overflow=hidden;strokeColor=inherit;fontSize=16;" parent="aH4MFKl8BmY1fgAoLkil-41" vertex="1">
          <mxGeometry x="40" width="140" height="30" as="geometry">
            <mxRectangle width="140" height="30" as="alternateBounds" />
          </mxGeometry>
        </mxCell>
        <mxCell id="Dwmg8EtGotrLEjZZTlVN-146" value="Lıg" style="shape=table;startSize=30;container=1;collapsible=0;childLayout=tableLayout;fixedRows=1;rowLines=0;fontStyle=0;strokeColor=default;fontSize=16;" parent="WIyWlLk6GJQsqaUBKTNV-1" vertex="1">
          <mxGeometry x="1473" y="313" width="167.00000000000045" height="150" as="geometry" />
        </mxCell>
        <mxCell id="Dwmg8EtGotrLEjZZTlVN-147" value="" style="shape=tableRow;horizontal=0;startSize=0;swimlaneHead=0;swimlaneBody=0;top=0;left=0;bottom=0;right=0;collapsible=0;dropTarget=0;fillColor=none;points=[[0,0.5],[1,0.5]];portConstraint=eastwest;strokeColor=inherit;fontSize=16;" parent="Dwmg8EtGotrLEjZZTlVN-146" vertex="1">
          <mxGeometry y="30" width="167.00000000000045" height="30" as="geometry" />
        </mxCell>
        <mxCell id="Dwmg8EtGotrLEjZZTlVN-148" value="PK" style="shape=partialRectangle;html=1;whiteSpace=wrap;connectable=0;fillColor=none;top=0;left=0;bottom=0;right=0;overflow=hidden;pointerEvents=1;strokeColor=inherit;fontSize=16;" parent="Dwmg8EtGotrLEjZZTlVN-147" vertex="1">
          <mxGeometry width="40" height="30" as="geometry">
            <mxRectangle width="40" height="30" as="alternateBounds" />
          </mxGeometry>
        </mxCell>
        <mxCell id="Dwmg8EtGotrLEjZZTlVN-149" value="LıgID" style="shape=partialRectangle;html=1;whiteSpace=wrap;connectable=0;fillColor=none;top=0;left=0;bottom=0;right=0;align=left;spacingLeft=6;overflow=hidden;strokeColor=inherit;fontSize=16;" parent="Dwmg8EtGotrLEjZZTlVN-147" vertex="1">
          <mxGeometry x="40" width="127" height="30" as="geometry">
            <mxRectangle width="127" height="30" as="alternateBounds" />
          </mxGeometry>
        </mxCell>
        <mxCell id="Dwmg8EtGotrLEjZZTlVN-150" value="" style="shape=tableRow;horizontal=0;startSize=0;swimlaneHead=0;swimlaneBody=0;top=0;left=0;bottom=0;right=0;collapsible=0;dropTarget=0;fillColor=none;points=[[0,0.5],[1,0.5]];portConstraint=eastwest;strokeColor=inherit;fontSize=16;" parent="Dwmg8EtGotrLEjZZTlVN-146" vertex="1">
          <mxGeometry y="60" width="167.00000000000045" height="30" as="geometry" />
        </mxCell>
        <mxCell id="Dwmg8EtGotrLEjZZTlVN-151" value="" style="shape=partialRectangle;html=1;whiteSpace=wrap;connectable=0;fillColor=none;top=0;left=0;bottom=0;right=0;overflow=hidden;strokeColor=inherit;fontSize=16;" parent="Dwmg8EtGotrLEjZZTlVN-150" vertex="1">
          <mxGeometry width="40" height="30" as="geometry">
            <mxRectangle width="40" height="30" as="alternateBounds" />
          </mxGeometry>
        </mxCell>
        <mxCell id="Dwmg8EtGotrLEjZZTlVN-152" value="Adı" style="shape=partialRectangle;html=1;whiteSpace=wrap;connectable=0;fillColor=none;top=0;left=0;bottom=0;right=0;align=left;spacingLeft=6;overflow=hidden;strokeColor=inherit;fontSize=16;" parent="Dwmg8EtGotrLEjZZTlVN-150" vertex="1">
          <mxGeometry x="40" width="127" height="30" as="geometry">
            <mxRectangle width="127" height="30" as="alternateBounds" />
          </mxGeometry>
        </mxCell>
        <mxCell id="Dwmg8EtGotrLEjZZTlVN-153" value="" style="shape=tableRow;horizontal=0;startSize=0;swimlaneHead=0;swimlaneBody=0;top=0;left=0;bottom=0;right=0;collapsible=0;dropTarget=0;fillColor=none;points=[[0,0.5],[1,0.5]];portConstraint=eastwest;strokeColor=inherit;fontSize=16;" parent="Dwmg8EtGotrLEjZZTlVN-146" vertex="1">
          <mxGeometry y="90" width="167.00000000000045" height="30" as="geometry" />
        </mxCell>
        <mxCell id="Dwmg8EtGotrLEjZZTlVN-154" value="FK" style="shape=partialRectangle;html=1;whiteSpace=wrap;connectable=0;fillColor=none;top=0;left=0;bottom=0;right=0;overflow=hidden;strokeColor=inherit;fontSize=16;" parent="Dwmg8EtGotrLEjZZTlVN-153" vertex="1">
          <mxGeometry width="40" height="30" as="geometry">
            <mxRectangle width="40" height="30" as="alternateBounds" />
          </mxGeometry>
        </mxCell>
        <mxCell id="Dwmg8EtGotrLEjZZTlVN-155" value="BransID" style="shape=partialRectangle;html=1;whiteSpace=wrap;connectable=0;fillColor=none;top=0;left=0;bottom=0;right=0;align=left;spacingLeft=6;overflow=hidden;strokeColor=inherit;fontSize=16;" parent="Dwmg8EtGotrLEjZZTlVN-153" vertex="1">
          <mxGeometry x="40" width="127" height="30" as="geometry">
            <mxRectangle width="127" height="30" as="alternateBounds" />
          </mxGeometry>
        </mxCell>
        <mxCell id="Dwmg8EtGotrLEjZZTlVN-156" style="shape=tableRow;horizontal=0;startSize=0;swimlaneHead=0;swimlaneBody=0;top=0;left=0;bottom=0;right=0;collapsible=0;dropTarget=0;fillColor=none;points=[[0,0.5],[1,0.5]];portConstraint=eastwest;strokeColor=inherit;fontSize=16;" parent="Dwmg8EtGotrLEjZZTlVN-146" vertex="1">
          <mxGeometry y="120" width="167.00000000000045" height="30" as="geometry" />
        </mxCell>
        <mxCell id="Dwmg8EtGotrLEjZZTlVN-157" style="shape=partialRectangle;html=1;whiteSpace=wrap;connectable=0;fillColor=none;top=0;left=0;bottom=0;right=0;overflow=hidden;strokeColor=inherit;fontSize=16;" parent="Dwmg8EtGotrLEjZZTlVN-156" vertex="1">
          <mxGeometry width="40" height="30" as="geometry">
            <mxRectangle width="40" height="30" as="alternateBounds" />
          </mxGeometry>
        </mxCell>
        <mxCell id="Dwmg8EtGotrLEjZZTlVN-158" value="Sezon" style="shape=partialRectangle;html=1;whiteSpace=wrap;connectable=0;fillColor=none;top=0;left=0;bottom=0;right=0;align=left;spacingLeft=6;overflow=hidden;strokeColor=inherit;fontSize=16;" parent="Dwmg8EtGotrLEjZZTlVN-156" vertex="1">
          <mxGeometry x="40" width="127" height="30" as="geometry">
            <mxRectangle width="127" height="30" as="alternateBounds" />
          </mxGeometry>
        </mxCell>
        <mxCell id="Dwmg8EtGotrLEjZZTlVN-246" value="voleybolcu" style="shape=table;startSize=30;container=1;collapsible=0;childLayout=tableLayout;fixedRows=1;rowLines=0;fontStyle=0;strokeColor=default;fontSize=16;" parent="WIyWlLk6GJQsqaUBKTNV-1" vertex="1">
          <mxGeometry x="1033" y="920" width="180" height="150" as="geometry" />
        </mxCell>
        <mxCell id="Dwmg8EtGotrLEjZZTlVN-247" value="" style="shape=tableRow;horizontal=0;startSize=0;swimlaneHead=0;swimlaneBody=0;top=0;left=0;bottom=0;right=0;collapsible=0;dropTarget=0;fillColor=none;points=[[0,0.5],[1,0.5]];portConstraint=eastwest;strokeColor=inherit;fontSize=16;" parent="Dwmg8EtGotrLEjZZTlVN-246" vertex="1">
          <mxGeometry y="30" width="180" height="30" as="geometry" />
        </mxCell>
        <mxCell id="Dwmg8EtGotrLEjZZTlVN-248" value="PK" style="shape=partialRectangle;html=1;whiteSpace=wrap;connectable=0;fillColor=none;top=0;left=0;bottom=0;right=0;overflow=hidden;pointerEvents=1;strokeColor=inherit;fontSize=16;" parent="Dwmg8EtGotrLEjZZTlVN-247" vertex="1">
          <mxGeometry width="37" height="30" as="geometry">
            <mxRectangle width="37" height="30" as="alternateBounds" />
          </mxGeometry>
        </mxCell>
        <mxCell id="Dwmg8EtGotrLEjZZTlVN-249" value="voleybolcuid" style="shape=partialRectangle;html=1;whiteSpace=wrap;connectable=0;fillColor=none;top=0;left=0;bottom=0;right=0;align=left;spacingLeft=6;overflow=hidden;strokeColor=inherit;fontSize=16;" parent="Dwmg8EtGotrLEjZZTlVN-247" vertex="1">
          <mxGeometry x="37" width="143" height="30" as="geometry">
            <mxRectangle width="143" height="30" as="alternateBounds" />
          </mxGeometry>
        </mxCell>
        <mxCell id="Dwmg8EtGotrLEjZZTlVN-250" value="" style="shape=tableRow;horizontal=0;startSize=0;swimlaneHead=0;swimlaneBody=0;top=0;left=0;bottom=0;right=0;collapsible=0;dropTarget=0;fillColor=none;points=[[0,0.5],[1,0.5]];portConstraint=eastwest;strokeColor=inherit;fontSize=16;" parent="Dwmg8EtGotrLEjZZTlVN-246" vertex="1">
          <mxGeometry y="60" width="180" height="30" as="geometry" />
        </mxCell>
        <mxCell id="Dwmg8EtGotrLEjZZTlVN-251" value="FK" style="shape=partialRectangle;html=1;whiteSpace=wrap;connectable=0;fillColor=none;top=0;left=0;bottom=0;right=0;overflow=hidden;strokeColor=inherit;fontSize=16;" parent="Dwmg8EtGotrLEjZZTlVN-250" vertex="1">
          <mxGeometry width="37" height="30" as="geometry">
            <mxRectangle width="37" height="30" as="alternateBounds" />
          </mxGeometry>
        </mxCell>
        <mxCell id="Dwmg8EtGotrLEjZZTlVN-252" value="TakımID" style="shape=partialRectangle;html=1;whiteSpace=wrap;connectable=0;fillColor=none;top=0;left=0;bottom=0;right=0;align=left;spacingLeft=6;overflow=hidden;strokeColor=inherit;fontSize=16;" parent="Dwmg8EtGotrLEjZZTlVN-250" vertex="1">
          <mxGeometry x="37" width="143" height="30" as="geometry">
            <mxRectangle width="143" height="30" as="alternateBounds" />
          </mxGeometry>
        </mxCell>
        <mxCell id="Dwmg8EtGotrLEjZZTlVN-262" style="shape=tableRow;horizontal=0;startSize=0;swimlaneHead=0;swimlaneBody=0;top=0;left=0;bottom=0;right=0;collapsible=0;dropTarget=0;fillColor=none;points=[[0,0.5],[1,0.5]];portConstraint=eastwest;strokeColor=inherit;fontSize=16;" parent="Dwmg8EtGotrLEjZZTlVN-246" vertex="1">
          <mxGeometry y="90" width="180" height="30" as="geometry" />
        </mxCell>
        <mxCell id="Dwmg8EtGotrLEjZZTlVN-263" value="FK" style="shape=partialRectangle;html=1;whiteSpace=wrap;connectable=0;fillColor=none;top=0;left=0;bottom=0;right=0;overflow=hidden;strokeColor=inherit;fontSize=16;" parent="Dwmg8EtGotrLEjZZTlVN-262" vertex="1">
          <mxGeometry width="37" height="30" as="geometry">
            <mxRectangle width="37" height="30" as="alternateBounds" />
          </mxGeometry>
        </mxCell>
        <mxCell id="Dwmg8EtGotrLEjZZTlVN-264" value="OyuncuID" style="shape=partialRectangle;html=1;whiteSpace=wrap;connectable=0;fillColor=none;top=0;left=0;bottom=0;right=0;align=left;spacingLeft=6;overflow=hidden;strokeColor=inherit;fontSize=16;" parent="Dwmg8EtGotrLEjZZTlVN-262" vertex="1">
          <mxGeometry x="37" width="143" height="30" as="geometry">
            <mxRectangle width="143" height="30" as="alternateBounds" />
          </mxGeometry>
        </mxCell>
        <mxCell id="rsTdlN0C95ZgyZTxl1ph-0" style="shape=tableRow;horizontal=0;startSize=0;swimlaneHead=0;swimlaneBody=0;top=0;left=0;bottom=0;right=0;collapsible=0;dropTarget=0;fillColor=none;points=[[0,0.5],[1,0.5]];portConstraint=eastwest;strokeColor=inherit;fontSize=16;" vertex="1" parent="Dwmg8EtGotrLEjZZTlVN-246">
          <mxGeometry y="120" width="180" height="30" as="geometry" />
        </mxCell>
        <mxCell id="rsTdlN0C95ZgyZTxl1ph-1" style="shape=partialRectangle;html=1;whiteSpace=wrap;connectable=0;fillColor=none;top=0;left=0;bottom=0;right=0;overflow=hidden;strokeColor=inherit;fontSize=16;" vertex="1" parent="rsTdlN0C95ZgyZTxl1ph-0">
          <mxGeometry width="37" height="30" as="geometry">
            <mxRectangle width="37" height="30" as="alternateBounds" />
          </mxGeometry>
        </mxCell>
        <mxCell id="rsTdlN0C95ZgyZTxl1ph-2" value="Mevki" style="shape=partialRectangle;html=1;whiteSpace=wrap;connectable=0;fillColor=none;top=0;left=0;bottom=0;right=0;align=left;spacingLeft=6;overflow=hidden;strokeColor=inherit;fontSize=16;" vertex="1" parent="rsTdlN0C95ZgyZTxl1ph-0">
          <mxGeometry x="37" width="143" height="30" as="geometry">
            <mxRectangle width="143" height="30" as="alternateBounds" />
          </mxGeometry>
        </mxCell>
        <mxCell id="aH4MFKl8BmY1fgAoLkil-1" value="D" style="ellipse;whiteSpace=wrap;html=1;aspect=fixed;" parent="WIyWlLk6GJQsqaUBKTNV-1" vertex="1">
          <mxGeometry x="1213" y="750" width="50" height="50" as="geometry" />
        </mxCell>
        <mxCell id="aH4MFKl8BmY1fgAoLkil-2" value="" style="endArrow=none;html=1;rounded=0;" parent="WIyWlLk6GJQsqaUBKTNV-1" edge="1">
          <mxGeometry width="50" height="50" relative="1" as="geometry">
            <mxPoint x="1180" y="810" as="sourcePoint" />
            <mxPoint x="1300" y="810" as="targetPoint" />
          </mxGeometry>
        </mxCell>
        <mxCell id="aH4MFKl8BmY1fgAoLkil-3" value="" style="endArrow=none;html=1;rounded=0;" parent="WIyWlLk6GJQsqaUBKTNV-1" edge="1">
          <mxGeometry width="50" height="50" relative="1" as="geometry">
            <mxPoint x="1180" y="820" as="sourcePoint" />
            <mxPoint x="1300" y="820" as="targetPoint" />
          </mxGeometry>
        </mxCell>
        <mxCell id="aH4MFKl8BmY1fgAoLkil-5" value="" style="endArrow=none;html=1;rounded=0;" parent="WIyWlLk6GJQsqaUBKTNV-1" edge="1">
          <mxGeometry width="50" height="50" relative="1" as="geometry">
            <mxPoint x="890" y="880" as="sourcePoint" />
            <mxPoint x="1230" y="880" as="targetPoint" />
          </mxGeometry>
        </mxCell>
        <mxCell id="aH4MFKl8BmY1fgAoLkil-6" value="" style="endArrow=none;html=1;rounded=0;" parent="WIyWlLk6GJQsqaUBKTNV-1" edge="1">
          <mxGeometry width="50" height="50" relative="1" as="geometry">
            <mxPoint x="1230" y="880" as="sourcePoint" />
            <mxPoint x="1560" y="880" as="targetPoint" />
          </mxGeometry>
        </mxCell>
        <mxCell id="aH4MFKl8BmY1fgAoLkil-8" value="" style="endArrow=none;html=1;rounded=0;exitX=0.5;exitY=0;exitDx=0;exitDy=0;" parent="WIyWlLk6GJQsqaUBKTNV-1" edge="1">
          <mxGeometry width="50" height="50" relative="1" as="geometry">
            <mxPoint x="893" y="920" as="sourcePoint" />
            <mxPoint x="893" y="880" as="targetPoint" />
          </mxGeometry>
        </mxCell>
        <mxCell id="aH4MFKl8BmY1fgAoLkil-9" value="" style="endArrow=none;html=1;rounded=0;exitX=0.5;exitY=0;exitDx=0;exitDy=0;" parent="WIyWlLk6GJQsqaUBKTNV-1" source="Dwmg8EtGotrLEjZZTlVN-246" edge="1">
          <mxGeometry width="50" height="50" relative="1" as="geometry">
            <mxPoint x="1060" y="870" as="sourcePoint" />
            <mxPoint x="1123" y="880" as="targetPoint" />
          </mxGeometry>
        </mxCell>
        <mxCell id="aH4MFKl8BmY1fgAoLkil-10" value="" style="endArrow=none;html=1;rounded=0;exitX=0.5;exitY=0;exitDx=0;exitDy=0;" parent="WIyWlLk6GJQsqaUBKTNV-1" edge="1">
          <mxGeometry width="50" height="50" relative="1" as="geometry">
            <mxPoint x="1343" y="920" as="sourcePoint" />
            <mxPoint x="1343" y="880" as="targetPoint" />
          </mxGeometry>
        </mxCell>
        <mxCell id="aH4MFKl8BmY1fgAoLkil-11" value="" style="endArrow=none;html=1;rounded=0;exitX=0.5;exitY=0;exitDx=0;exitDy=0;" parent="WIyWlLk6GJQsqaUBKTNV-1" edge="1">
          <mxGeometry width="50" height="50" relative="1" as="geometry">
            <mxPoint x="1556.5" y="920" as="sourcePoint" />
            <mxPoint x="1557" y="880" as="targetPoint" />
          </mxGeometry>
        </mxCell>
        <mxCell id="aH4MFKl8BmY1fgAoLkil-15" value="" style="ellipse;whiteSpace=wrap;html=1;aspect=fixed;" parent="WIyWlLk6GJQsqaUBKTNV-1" vertex="1">
          <mxGeometry x="720" y="370" width="20" height="20" as="geometry" />
        </mxCell>
        <mxCell id="aH4MFKl8BmY1fgAoLkil-16" value="" style="endArrow=none;html=1;rounded=0;entryX=0;entryY=0.5;entryDx=0;entryDy=0;" parent="WIyWlLk6GJQsqaUBKTNV-1" target="aH4MFKl8BmY1fgAoLkil-15" edge="1">
          <mxGeometry width="50" height="50" relative="1" as="geometry">
            <mxPoint x="700" y="380" as="sourcePoint" />
            <mxPoint x="730" y="320" as="targetPoint" />
          </mxGeometry>
        </mxCell>
        <mxCell id="aH4MFKl8BmY1fgAoLkil-17" value="" style="endArrow=none;html=1;rounded=0;entryX=0;entryY=0.5;entryDx=0;entryDy=0;" parent="WIyWlLk6GJQsqaUBKTNV-1" target="aH4MFKl8BmY1fgAoLkil-15" edge="1">
          <mxGeometry width="50" height="50" relative="1" as="geometry">
            <mxPoint x="700" y="370" as="sourcePoint" />
            <mxPoint x="720" y="290" as="targetPoint" />
          </mxGeometry>
        </mxCell>
        <mxCell id="aH4MFKl8BmY1fgAoLkil-18" value="" style="endArrow=none;html=1;rounded=0;entryX=0;entryY=0.5;entryDx=0;entryDy=0;" parent="WIyWlLk6GJQsqaUBKTNV-1" target="aH4MFKl8BmY1fgAoLkil-15" edge="1">
          <mxGeometry width="50" height="50" relative="1" as="geometry">
            <mxPoint x="700" y="390" as="sourcePoint" />
            <mxPoint x="750" y="300" as="targetPoint" />
          </mxGeometry>
        </mxCell>
        <mxCell id="aH4MFKl8BmY1fgAoLkil-22" value="" style="endArrow=none;html=1;rounded=0;" parent="WIyWlLk6GJQsqaUBKTNV-1" edge="1">
          <mxGeometry width="50" height="50" relative="1" as="geometry">
            <mxPoint x="1218" y="468.5" as="sourcePoint" />
            <mxPoint x="1238" y="468.5" as="targetPoint" />
          </mxGeometry>
        </mxCell>
        <mxCell id="aH4MFKl8BmY1fgAoLkil-23" value="" style="endArrow=none;html=1;rounded=0;" parent="WIyWlLk6GJQsqaUBKTNV-1" edge="1">
          <mxGeometry width="50" height="50" relative="1" as="geometry">
            <mxPoint x="1218" y="480" as="sourcePoint" />
            <mxPoint x="1238" y="480" as="targetPoint" />
          </mxGeometry>
        </mxCell>
        <mxCell id="aH4MFKl8BmY1fgAoLkil-24" value="" style="ellipse;whiteSpace=wrap;html=1;aspect=fixed;" parent="WIyWlLk6GJQsqaUBKTNV-1" vertex="1">
          <mxGeometry x="1218" y="528.5" width="20" height="20" as="geometry" />
        </mxCell>
        <mxCell id="aH4MFKl8BmY1fgAoLkil-29" value="" style="endArrow=none;html=1;rounded=0;entryX=1;entryY=0.5;entryDx=0;entryDy=0;exitX=0;exitY=0.5;exitDx=0;exitDy=0;" parent="WIyWlLk6GJQsqaUBKTNV-1" source="aH4MFKl8BmY1fgAoLkil-34" target="Dwmg8EtGotrLEjZZTlVN-46" edge="1">
          <mxGeometry width="50" height="50" relative="1" as="geometry">
            <mxPoint x="619" y="340" as="sourcePoint" />
            <mxPoint x="620" y="223" as="targetPoint" />
            <Array as="points">
              <mxPoint x="1080" y="418" />
              <mxPoint x="1080" y="482" />
            </Array>
          </mxGeometry>
        </mxCell>
        <mxCell id="aH4MFKl8BmY1fgAoLkil-30" value="" style="endArrow=none;html=1;rounded=0;" parent="WIyWlLk6GJQsqaUBKTNV-1" edge="1">
          <mxGeometry width="50" height="50" relative="1" as="geometry">
            <mxPoint x="1000" y="490" as="sourcePoint" />
            <mxPoint x="1000" y="470" as="targetPoint" />
          </mxGeometry>
        </mxCell>
        <mxCell id="aH4MFKl8BmY1fgAoLkil-31" value="" style="endArrow=none;html=1;rounded=0;" parent="WIyWlLk6GJQsqaUBKTNV-1" edge="1">
          <mxGeometry width="50" height="50" relative="1" as="geometry">
            <mxPoint x="990" y="490" as="sourcePoint" />
            <mxPoint x="990" y="470" as="targetPoint" />
          </mxGeometry>
        </mxCell>
        <mxCell id="aH4MFKl8BmY1fgAoLkil-32" value="" style="endArrow=none;html=1;rounded=0;" parent="WIyWlLk6GJQsqaUBKTNV-1" edge="1">
          <mxGeometry width="50" height="50" relative="1" as="geometry">
            <mxPoint x="1160" y="430" as="sourcePoint" />
            <mxPoint x="1160" y="409.28999999999996" as="targetPoint" />
          </mxGeometry>
        </mxCell>
        <mxCell id="aH4MFKl8BmY1fgAoLkil-33" value="" style="endArrow=none;html=1;rounded=0;" parent="WIyWlLk6GJQsqaUBKTNV-1" edge="1">
          <mxGeometry width="50" height="50" relative="1" as="geometry">
            <mxPoint x="1150" y="430" as="sourcePoint" />
            <mxPoint x="1150" y="409.66999999999996" as="targetPoint" />
          </mxGeometry>
        </mxCell>
        <mxCell id="aH4MFKl8BmY1fgAoLkil-37" value="" style="ellipse;whiteSpace=wrap;html=1;aspect=fixed;" parent="WIyWlLk6GJQsqaUBKTNV-1" vertex="1">
          <mxGeometry x="1140" y="360" width="20" height="20" as="geometry" />
        </mxCell>
        <mxCell id="aH4MFKl8BmY1fgAoLkil-38" value="" style="endArrow=none;html=1;rounded=0;entryX=1;entryY=0.5;entryDx=0;entryDy=0;" parent="WIyWlLk6GJQsqaUBKTNV-1" target="aH4MFKl8BmY1fgAoLkil-37" edge="1">
          <mxGeometry width="50" height="50" relative="1" as="geometry">
            <mxPoint x="1170" y="360" as="sourcePoint" />
            <mxPoint x="1010" y="380" as="targetPoint" />
          </mxGeometry>
        </mxCell>
        <mxCell id="aH4MFKl8BmY1fgAoLkil-39" value="" style="endArrow=none;html=1;rounded=0;entryX=1;entryY=0.5;entryDx=0;entryDy=0;" parent="WIyWlLk6GJQsqaUBKTNV-1" target="aH4MFKl8BmY1fgAoLkil-37" edge="1">
          <mxGeometry width="50" height="50" relative="1" as="geometry">
            <mxPoint x="1170" y="370" as="sourcePoint" />
            <mxPoint x="1090" y="350" as="targetPoint" />
          </mxGeometry>
        </mxCell>
        <mxCell id="aH4MFKl8BmY1fgAoLkil-40" value="" style="endArrow=none;html=1;rounded=0;entryX=1;entryY=0.5;entryDx=0;entryDy=0;" parent="WIyWlLk6GJQsqaUBKTNV-1" target="aH4MFKl8BmY1fgAoLkil-37" edge="1">
          <mxGeometry width="50" height="50" relative="1" as="geometry">
            <mxPoint x="1170" y="380" as="sourcePoint" />
            <mxPoint x="1080" y="310" as="targetPoint" />
          </mxGeometry>
        </mxCell>
        <mxCell id="aH4MFKl8BmY1fgAoLkil-57" value="" style="endArrow=none;html=1;rounded=0;" parent="WIyWlLk6GJQsqaUBKTNV-1" edge="1">
          <mxGeometry width="50" height="50" relative="1" as="geometry">
            <mxPoint x="530" y="350" as="sourcePoint" />
            <mxPoint x="530" y="330" as="targetPoint" />
          </mxGeometry>
        </mxCell>
        <mxCell id="aH4MFKl8BmY1fgAoLkil-58" value="" style="endArrow=none;html=1;rounded=0;" parent="WIyWlLk6GJQsqaUBKTNV-1" edge="1">
          <mxGeometry width="50" height="50" relative="1" as="geometry">
            <mxPoint x="520" y="350" as="sourcePoint" />
            <mxPoint x="520" y="330" as="targetPoint" />
            <Array as="points" />
          </mxGeometry>
        </mxCell>
        <mxCell id="aH4MFKl8BmY1fgAoLkil-59" value="" style="endArrow=none;html=1;rounded=0;" parent="WIyWlLk6GJQsqaUBKTNV-1" edge="1">
          <mxGeometry width="50" height="50" relative="1" as="geometry">
            <mxPoint x="410" y="340" as="sourcePoint" />
            <mxPoint x="410" y="220" as="targetPoint" />
          </mxGeometry>
        </mxCell>
        <mxCell id="aH4MFKl8BmY1fgAoLkil-61" value="" style="endArrow=none;html=1;rounded=0;entryX=0;entryY=0;entryDx=0;entryDy=0;" parent="WIyWlLk6GJQsqaUBKTNV-1" target="Dwmg8EtGotrLEjZZTlVN-16" edge="1">
          <mxGeometry width="50" height="50" relative="1" as="geometry">
            <mxPoint x="410" y="340" as="sourcePoint" />
            <mxPoint x="530" y="310" as="targetPoint" />
          </mxGeometry>
        </mxCell>
        <mxCell id="aH4MFKl8BmY1fgAoLkil-62" value="" style="endArrow=none;html=1;rounded=0;" parent="WIyWlLk6GJQsqaUBKTNV-1" edge="1">
          <mxGeometry width="50" height="50" relative="1" as="geometry">
            <mxPoint x="400" y="230" as="sourcePoint" />
            <mxPoint x="420" y="230" as="targetPoint" />
          </mxGeometry>
        </mxCell>
        <mxCell id="aH4MFKl8BmY1fgAoLkil-63" value="" style="endArrow=none;html=1;rounded=0;" parent="WIyWlLk6GJQsqaUBKTNV-1" edge="1">
          <mxGeometry width="50" height="50" relative="1" as="geometry">
            <mxPoint x="400" y="240" as="sourcePoint" />
            <mxPoint x="420" y="240" as="targetPoint" />
          </mxGeometry>
        </mxCell>
        <mxCell id="aH4MFKl8BmY1fgAoLkil-64" value="" style="endArrow=none;html=1;rounded=0;entryX=-0.018;entryY=-0.062;entryDx=0;entryDy=0;entryPerimeter=0;" parent="WIyWlLk6GJQsqaUBKTNV-1" target="Dwmg8EtGotrLEjZZTlVN-56" edge="1">
          <mxGeometry width="50" height="50" relative="1" as="geometry">
            <mxPoint x="210" y="100" as="sourcePoint" />
            <mxPoint x="80" y="270" as="targetPoint" />
            <Array as="points" />
          </mxGeometry>
        </mxCell>
        <mxCell id="aH4MFKl8BmY1fgAoLkil-65" value="" style="ellipse;whiteSpace=wrap;html=1;aspect=fixed;" parent="WIyWlLk6GJQsqaUBKTNV-1" vertex="1">
          <mxGeometry x="190" y="90" width="23" height="23" as="geometry" />
        </mxCell>
        <mxCell id="aH4MFKl8BmY1fgAoLkil-66" value="" style="endArrow=none;html=1;rounded=0;" parent="WIyWlLk6GJQsqaUBKTNV-1" edge="1">
          <mxGeometry width="50" height="50" relative="1" as="geometry">
            <mxPoint x="180" y="100" as="sourcePoint" />
            <mxPoint x="190" y="100" as="targetPoint" />
          </mxGeometry>
        </mxCell>
        <mxCell id="aH4MFKl8BmY1fgAoLkil-67" value="" style="endArrow=none;html=1;rounded=0;" parent="WIyWlLk6GJQsqaUBKTNV-1" edge="1">
          <mxGeometry width="50" height="50" relative="1" as="geometry">
            <mxPoint x="180" y="110" as="sourcePoint" />
            <mxPoint x="190" y="100" as="targetPoint" />
          </mxGeometry>
        </mxCell>
        <mxCell id="aH4MFKl8BmY1fgAoLkil-68" value="" style="endArrow=none;html=1;rounded=0;entryX=0;entryY=0.5;entryDx=0;entryDy=0;" parent="WIyWlLk6GJQsqaUBKTNV-1" target="aH4MFKl8BmY1fgAoLkil-65" edge="1">
          <mxGeometry width="50" height="50" relative="1" as="geometry">
            <mxPoint x="180" y="90" as="sourcePoint" />
            <mxPoint x="230" y="90" as="targetPoint" />
          </mxGeometry>
        </mxCell>
        <mxCell id="aH4MFKl8BmY1fgAoLkil-69" value="" style="endArrow=none;html=1;rounded=0;" parent="WIyWlLk6GJQsqaUBKTNV-1" edge="1">
          <mxGeometry width="50" height="50" relative="1" as="geometry">
            <mxPoint x="300" y="110" as="sourcePoint" />
            <mxPoint x="300" y="90" as="targetPoint" />
          </mxGeometry>
        </mxCell>
        <mxCell id="aH4MFKl8BmY1fgAoLkil-70" value="" style="endArrow=none;html=1;rounded=0;" parent="WIyWlLk6GJQsqaUBKTNV-1" edge="1">
          <mxGeometry width="50" height="50" relative="1" as="geometry">
            <mxPoint x="290" y="110" as="sourcePoint" />
            <mxPoint x="290" y="90" as="targetPoint" />
          </mxGeometry>
        </mxCell>
        <mxCell id="aH4MFKl8BmY1fgAoLkil-71" value="" style="endArrow=none;html=1;rounded=0;entryX=0;entryY=0.5;entryDx=0;entryDy=0;exitX=1;exitY=0.5;exitDx=0;exitDy=0;" parent="WIyWlLk6GJQsqaUBKTNV-1" source="aH4MFKl8BmY1fgAoLkil-15" target="aH4MFKl8BmY1fgAoLkil-37" edge="1">
          <mxGeometry width="50" height="50" relative="1" as="geometry">
            <mxPoint x="720" y="370" as="sourcePoint" />
            <mxPoint x="990" y="350" as="targetPoint" />
            <Array as="points">
              <mxPoint x="930" y="380" />
              <mxPoint x="1040" y="380" />
              <mxPoint x="1100" y="380" />
              <mxPoint x="1120" y="380" />
              <mxPoint x="1120" y="370" />
              <mxPoint x="1130" y="370" />
            </Array>
          </mxGeometry>
        </mxCell>
        <mxCell id="aH4MFKl8BmY1fgAoLkil-74" value="" style="ellipse;whiteSpace=wrap;html=1;aspect=fixed;" parent="WIyWlLk6GJQsqaUBKTNV-1" vertex="1">
          <mxGeometry x="420" y="600" width="20" height="20" as="geometry" />
        </mxCell>
        <mxCell id="aH4MFKl8BmY1fgAoLkil-75" value="" style="endArrow=none;html=1;rounded=0;exitX=0;exitY=0.5;exitDx=0;exitDy=0;" parent="WIyWlLk6GJQsqaUBKTNV-1" source="aH4MFKl8BmY1fgAoLkil-74" edge="1">
          <mxGeometry width="50" height="50" relative="1" as="geometry">
            <mxPoint x="410" y="610" as="sourcePoint" />
            <mxPoint x="410" y="600" as="targetPoint" />
          </mxGeometry>
        </mxCell>
        <mxCell id="aH4MFKl8BmY1fgAoLkil-76" value="" style="endArrow=none;html=1;rounded=0;" parent="WIyWlLk6GJQsqaUBKTNV-1" edge="1">
          <mxGeometry width="50" height="50" relative="1" as="geometry">
            <mxPoint x="410" y="610" as="sourcePoint" />
            <mxPoint x="420" y="610" as="targetPoint" />
          </mxGeometry>
        </mxCell>
        <mxCell id="aH4MFKl8BmY1fgAoLkil-77" value="" style="endArrow=none;html=1;rounded=0;" parent="WIyWlLk6GJQsqaUBKTNV-1" edge="1">
          <mxGeometry width="50" height="50" relative="1" as="geometry">
            <mxPoint x="410" y="620" as="sourcePoint" />
            <mxPoint x="420" y="610" as="targetPoint" />
          </mxGeometry>
        </mxCell>
        <mxCell id="aH4MFKl8BmY1fgAoLkil-81" value="" style="endArrow=none;html=1;rounded=0;exitX=0;exitY=0.172;exitDx=0;exitDy=0;exitPerimeter=0;" parent="WIyWlLk6GJQsqaUBKTNV-1" source="Dwmg8EtGotrLEjZZTlVN-6" edge="1">
          <mxGeometry width="50" height="50" relative="1" as="geometry">
            <mxPoint x="770" y="310" as="sourcePoint" />
            <mxPoint x="890" y="340" as="targetPoint" />
          </mxGeometry>
        </mxCell>
        <mxCell id="aH4MFKl8BmY1fgAoLkil-82" value="" style="endArrow=none;html=1;rounded=0;" parent="WIyWlLk6GJQsqaUBKTNV-1" edge="1">
          <mxGeometry width="50" height="50" relative="1" as="geometry">
            <mxPoint x="890" y="340" as="sourcePoint" />
            <mxPoint x="890" y="240" as="targetPoint" />
          </mxGeometry>
        </mxCell>
        <mxCell id="aH4MFKl8BmY1fgAoLkil-84" value="" style="ellipse;whiteSpace=wrap;html=1;aspect=fixed;" parent="WIyWlLk6GJQsqaUBKTNV-1" vertex="1">
          <mxGeometry x="881.5" y="223" width="17" height="17" as="geometry" />
        </mxCell>
        <mxCell id="aH4MFKl8BmY1fgAoLkil-85" value="" style="endArrow=none;html=1;rounded=0;exitX=0.5;exitY=0;exitDx=0;exitDy=0;" parent="WIyWlLk6GJQsqaUBKTNV-1" source="aH4MFKl8BmY1fgAoLkil-84" edge="1">
          <mxGeometry width="50" height="50" relative="1" as="geometry">
            <mxPoint x="890" y="220" as="sourcePoint" />
            <mxPoint x="890" y="210" as="targetPoint" />
          </mxGeometry>
        </mxCell>
        <mxCell id="aH4MFKl8BmY1fgAoLkil-86" value="" style="endArrow=none;html=1;rounded=0;exitX=0.5;exitY=0;exitDx=0;exitDy=0;" parent="WIyWlLk6GJQsqaUBKTNV-1" source="aH4MFKl8BmY1fgAoLkil-84" edge="1">
          <mxGeometry width="50" height="50" relative="1" as="geometry">
            <mxPoint x="810" y="300" as="sourcePoint" />
            <mxPoint x="900" y="210" as="targetPoint" />
          </mxGeometry>
        </mxCell>
        <mxCell id="aH4MFKl8BmY1fgAoLkil-87" value="" style="endArrow=none;html=1;rounded=0;entryX=0.5;entryY=0;entryDx=0;entryDy=0;" parent="WIyWlLk6GJQsqaUBKTNV-1" target="aH4MFKl8BmY1fgAoLkil-84" edge="1">
          <mxGeometry width="50" height="50" relative="1" as="geometry">
            <mxPoint x="880" y="210" as="sourcePoint" />
            <mxPoint x="820" y="240" as="targetPoint" />
          </mxGeometry>
        </mxCell>
        <mxCell id="aH4MFKl8BmY1fgAoLkil-88" value="" style="endArrow=none;html=1;rounded=0;exitX=1.02;exitY=0.045;exitDx=0;exitDy=0;exitPerimeter=0;entryX=0.015;entryY=0.107;entryDx=0;entryDy=0;entryPerimeter=0;" parent="WIyWlLk6GJQsqaUBKTNV-1" edge="1">
          <mxGeometry width="50" height="50" relative="1" as="geometry">
            <mxPoint x="490.0000000000001" y="80.7" as="sourcePoint" />
            <mxPoint x="799.1000000000001" y="80.00000000000001" as="targetPoint" />
          </mxGeometry>
        </mxCell>
        <mxCell id="aH4MFKl8BmY1fgAoLkil-89" value="" style="endArrow=none;html=1;rounded=0;" parent="WIyWlLk6GJQsqaUBKTNV-1" edge="1">
          <mxGeometry width="50" height="50" relative="1" as="geometry">
            <mxPoint x="790" y="90" as="sourcePoint" />
            <mxPoint x="790" y="70" as="targetPoint" />
          </mxGeometry>
        </mxCell>
        <mxCell id="aH4MFKl8BmY1fgAoLkil-90" value="" style="endArrow=none;html=1;rounded=0;" parent="WIyWlLk6GJQsqaUBKTNV-1" edge="1">
          <mxGeometry width="50" height="50" relative="1" as="geometry">
            <mxPoint x="780" y="90" as="sourcePoint" />
            <mxPoint x="780" y="70" as="targetPoint" />
          </mxGeometry>
        </mxCell>
        <mxCell id="aH4MFKl8BmY1fgAoLkil-91" value="" style="endArrow=none;html=1;rounded=0;" parent="WIyWlLk6GJQsqaUBKTNV-1" edge="1">
          <mxGeometry width="50" height="50" relative="1" as="geometry">
            <mxPoint x="500" y="90" as="sourcePoint" />
            <mxPoint x="500" y="70" as="targetPoint" />
          </mxGeometry>
        </mxCell>
        <mxCell id="aH4MFKl8BmY1fgAoLkil-92" value="" style="endArrow=none;html=1;rounded=0;" parent="WIyWlLk6GJQsqaUBKTNV-1" edge="1">
          <mxGeometry width="50" height="50" relative="1" as="geometry">
            <mxPoint x="510" y="90" as="sourcePoint" />
            <mxPoint x="510" y="70" as="targetPoint" />
          </mxGeometry>
        </mxCell>
        <mxCell id="aH4MFKl8BmY1fgAoLkil-93" value="" style="endArrow=none;html=1;rounded=0;" parent="WIyWlLk6GJQsqaUBKTNV-1" edge="1">
          <mxGeometry width="50" height="50" relative="1" as="geometry">
            <mxPoint x="1150" y="330" as="sourcePoint" />
            <mxPoint x="1150" y="350" as="targetPoint" />
          </mxGeometry>
        </mxCell>
        <mxCell id="aH4MFKl8BmY1fgAoLkil-94" value="" style="endArrow=none;html=1;rounded=0;" parent="WIyWlLk6GJQsqaUBKTNV-1" edge="1">
          <mxGeometry width="50" height="50" relative="1" as="geometry">
            <mxPoint x="1160" y="350" as="sourcePoint" />
            <mxPoint x="1160" y="340" as="targetPoint" />
            <Array as="points">
              <mxPoint x="1160" y="330" />
            </Array>
          </mxGeometry>
        </mxCell>
        <mxCell id="aH4MFKl8BmY1fgAoLkil-95" value="" style="endArrow=none;html=1;rounded=0;entryX=0;entryY=0.5;entryDx=0;entryDy=0;" parent="WIyWlLk6GJQsqaUBKTNV-1" edge="1">
          <mxGeometry width="50" height="50" relative="1" as="geometry">
            <mxPoint x="1289.36" y="339.84" as="sourcePoint" />
            <mxPoint x="1440" y="339.84" as="targetPoint" />
          </mxGeometry>
        </mxCell>
        <mxCell id="aH4MFKl8BmY1fgAoLkil-96" value="" style="ellipse;whiteSpace=wrap;html=1;aspect=fixed;" parent="WIyWlLk6GJQsqaUBKTNV-1" vertex="1">
          <mxGeometry x="1440" y="330" width="20" height="20" as="geometry" />
        </mxCell>
        <mxCell id="aH4MFKl8BmY1fgAoLkil-97" value="" style="endArrow=none;html=1;rounded=0;exitX=1;exitY=0.5;exitDx=0;exitDy=0;" parent="WIyWlLk6GJQsqaUBKTNV-1" source="aH4MFKl8BmY1fgAoLkil-96" edge="1">
          <mxGeometry width="50" height="50" relative="1" as="geometry">
            <mxPoint x="1410" y="340" as="sourcePoint" />
            <mxPoint x="1470" y="330" as="targetPoint" />
          </mxGeometry>
        </mxCell>
        <mxCell id="aH4MFKl8BmY1fgAoLkil-98" value="" style="endArrow=none;html=1;rounded=0;exitX=1;exitY=0.5;exitDx=0;exitDy=0;" parent="WIyWlLk6GJQsqaUBKTNV-1" source="aH4MFKl8BmY1fgAoLkil-96" edge="1">
          <mxGeometry width="50" height="50" relative="1" as="geometry">
            <mxPoint x="1390" y="330" as="sourcePoint" />
            <mxPoint x="1470" y="340" as="targetPoint" />
          </mxGeometry>
        </mxCell>
        <mxCell id="aH4MFKl8BmY1fgAoLkil-99" value="" style="endArrow=none;html=1;rounded=0;exitX=1;exitY=0.5;exitDx=0;exitDy=0;" parent="WIyWlLk6GJQsqaUBKTNV-1" source="aH4MFKl8BmY1fgAoLkil-96" edge="1">
          <mxGeometry width="50" height="50" relative="1" as="geometry">
            <mxPoint x="1340" y="330" as="sourcePoint" />
            <mxPoint x="1470" y="350" as="targetPoint" />
          </mxGeometry>
        </mxCell>
        <mxCell id="aH4MFKl8BmY1fgAoLkil-100" value="" style="endArrow=none;html=1;rounded=0;" parent="WIyWlLk6GJQsqaUBKTNV-1" edge="1">
          <mxGeometry width="50" height="50" relative="1" as="geometry">
            <mxPoint x="1330" y="330" as="sourcePoint" />
            <mxPoint x="1330" y="350" as="targetPoint" />
          </mxGeometry>
        </mxCell>
        <mxCell id="aH4MFKl8BmY1fgAoLkil-102" value="" style="endArrow=none;html=1;rounded=0;" parent="WIyWlLk6GJQsqaUBKTNV-1" edge="1">
          <mxGeometry width="50" height="50" relative="1" as="geometry">
            <mxPoint x="1340" y="330" as="sourcePoint" />
            <mxPoint x="1340" y="350" as="targetPoint" />
          </mxGeometry>
        </mxCell>
        <mxCell id="aH4MFKl8BmY1fgAoLkil-103" value="" style="endArrow=none;html=1;rounded=0;exitX=0.5;exitY=0;exitDx=0;exitDy=0;entryX=0.446;entryY=1.033;entryDx=0;entryDy=0;entryPerimeter=0;" parent="WIyWlLk6GJQsqaUBKTNV-1" source="Dwmg8EtGotrLEjZZTlVN-6" target="aH4MFKl8BmY1fgAoLkil-41" edge="1">
          <mxGeometry width="50" height="50" relative="1" as="geometry">
            <mxPoint x="1030" y="280" as="sourcePoint" />
            <mxPoint x="1230" y="230" as="targetPoint" />
          </mxGeometry>
        </mxCell>
        <mxCell id="aH4MFKl8BmY1fgAoLkil-104" value="" style="endArrow=none;html=1;rounded=0;" parent="WIyWlLk6GJQsqaUBKTNV-1" edge="1">
          <mxGeometry width="50" height="50" relative="1" as="geometry">
            <mxPoint x="1220" y="300" as="sourcePoint" />
            <mxPoint x="1240" y="300" as="targetPoint" />
          </mxGeometry>
        </mxCell>
        <mxCell id="aH4MFKl8BmY1fgAoLkil-105" value="" style="endArrow=none;html=1;rounded=0;" parent="WIyWlLk6GJQsqaUBKTNV-1" edge="1">
          <mxGeometry width="50" height="50" relative="1" as="geometry">
            <mxPoint x="1220" y="290" as="sourcePoint" />
            <mxPoint x="1240" y="290" as="targetPoint" />
          </mxGeometry>
        </mxCell>
        <mxCell id="aH4MFKl8BmY1fgAoLkil-106" value="" style="endArrow=none;html=1;rounded=0;" parent="WIyWlLk6GJQsqaUBKTNV-1" edge="1">
          <mxGeometry width="50" height="50" relative="1" as="geometry">
            <mxPoint x="1220" y="230" as="sourcePoint" />
            <mxPoint x="1240" y="230" as="targetPoint" />
          </mxGeometry>
        </mxCell>
        <mxCell id="aH4MFKl8BmY1fgAoLkil-107" value="" style="endArrow=none;html=1;rounded=0;" parent="WIyWlLk6GJQsqaUBKTNV-1" edge="1">
          <mxGeometry width="50" height="50" relative="1" as="geometry">
            <mxPoint x="1220" y="220" as="sourcePoint" />
            <mxPoint x="1240" y="220" as="targetPoint" />
          </mxGeometry>
        </mxCell>
        <mxCell id="aH4MFKl8BmY1fgAoLkil-111" value="" style="endArrow=none;html=1;rounded=0;exitX=1;exitY=0;exitDx=0;exitDy=0;" parent="WIyWlLk6GJQsqaUBKTNV-1" source="Dwmg8EtGotrLEjZZTlVN-6" edge="1">
          <mxGeometry width="50" height="50" relative="1" as="geometry">
            <mxPoint x="1290" y="310" as="sourcePoint" />
            <mxPoint x="1290" y="250" as="targetPoint" />
          </mxGeometry>
        </mxCell>
        <mxCell id="aH4MFKl8BmY1fgAoLkil-112" value="" style="endArrow=none;html=1;rounded=0;" parent="WIyWlLk6GJQsqaUBKTNV-1" edge="1">
          <mxGeometry width="50" height="50" relative="1" as="geometry">
            <mxPoint x="1290" y="250" as="sourcePoint" />
            <mxPoint x="1530" y="250" as="targetPoint" />
          </mxGeometry>
        </mxCell>
        <mxCell id="aH4MFKl8BmY1fgAoLkil-113" value="" style="endArrow=none;html=1;rounded=0;" parent="WIyWlLk6GJQsqaUBKTNV-1" edge="1">
          <mxGeometry width="50" height="50" relative="1" as="geometry">
            <mxPoint x="1530" y="250" as="sourcePoint" />
            <mxPoint x="1530" y="210" as="targetPoint" />
          </mxGeometry>
        </mxCell>
        <mxCell id="aH4MFKl8BmY1fgAoLkil-114" value="MalıDeger" style="shape=table;startSize=30;container=1;collapsible=0;childLayout=tableLayout;fixedRows=1;rowLines=0;fontStyle=0;strokeColor=default;fontSize=16;" parent="WIyWlLk6GJQsqaUBKTNV-1" vertex="1">
          <mxGeometry x="1450" y="90" width="180" height="120" as="geometry" />
        </mxCell>
        <mxCell id="aH4MFKl8BmY1fgAoLkil-115" value="" style="shape=tableRow;horizontal=0;startSize=0;swimlaneHead=0;swimlaneBody=0;top=0;left=0;bottom=0;right=0;collapsible=0;dropTarget=0;fillColor=none;points=[[0,0.5],[1,0.5]];portConstraint=eastwest;strokeColor=inherit;fontSize=16;" parent="aH4MFKl8BmY1fgAoLkil-114" vertex="1">
          <mxGeometry y="30" width="180" height="30" as="geometry" />
        </mxCell>
        <mxCell id="aH4MFKl8BmY1fgAoLkil-116" value="PK" style="shape=partialRectangle;html=1;whiteSpace=wrap;connectable=0;fillColor=none;top=0;left=0;bottom=0;right=0;overflow=hidden;pointerEvents=1;strokeColor=inherit;fontSize=16;" parent="aH4MFKl8BmY1fgAoLkil-115" vertex="1">
          <mxGeometry width="40" height="30" as="geometry">
            <mxRectangle width="40" height="30" as="alternateBounds" />
          </mxGeometry>
        </mxCell>
        <mxCell id="aH4MFKl8BmY1fgAoLkil-117" value="MalıDegerID" style="shape=partialRectangle;html=1;whiteSpace=wrap;connectable=0;fillColor=none;top=0;left=0;bottom=0;right=0;align=left;spacingLeft=6;overflow=hidden;strokeColor=inherit;fontSize=16;" parent="aH4MFKl8BmY1fgAoLkil-115" vertex="1">
          <mxGeometry x="40" width="140" height="30" as="geometry">
            <mxRectangle width="140" height="30" as="alternateBounds" />
          </mxGeometry>
        </mxCell>
        <mxCell id="aH4MFKl8BmY1fgAoLkil-121" value="" style="shape=tableRow;horizontal=0;startSize=0;swimlaneHead=0;swimlaneBody=0;top=0;left=0;bottom=0;right=0;collapsible=0;dropTarget=0;fillColor=none;points=[[0,0.5],[1,0.5]];portConstraint=eastwest;strokeColor=inherit;fontSize=16;" parent="aH4MFKl8BmY1fgAoLkil-114" vertex="1">
          <mxGeometry y="60" width="180" height="30" as="geometry" />
        </mxCell>
        <mxCell id="aH4MFKl8BmY1fgAoLkil-122" value="FK" style="shape=partialRectangle;html=1;whiteSpace=wrap;connectable=0;fillColor=none;top=0;left=0;bottom=0;right=0;overflow=hidden;strokeColor=inherit;fontSize=16;" parent="aH4MFKl8BmY1fgAoLkil-121" vertex="1">
          <mxGeometry width="40" height="30" as="geometry">
            <mxRectangle width="40" height="30" as="alternateBounds" />
          </mxGeometry>
        </mxCell>
        <mxCell id="aH4MFKl8BmY1fgAoLkil-123" value="BransID" style="shape=partialRectangle;html=1;whiteSpace=wrap;connectable=0;fillColor=none;top=0;left=0;bottom=0;right=0;align=left;spacingLeft=6;overflow=hidden;strokeColor=inherit;fontSize=16;" parent="aH4MFKl8BmY1fgAoLkil-121" vertex="1">
          <mxGeometry x="40" width="140" height="30" as="geometry">
            <mxRectangle width="140" height="30" as="alternateBounds" />
          </mxGeometry>
        </mxCell>
        <mxCell id="aH4MFKl8BmY1fgAoLkil-127" style="shape=tableRow;horizontal=0;startSize=0;swimlaneHead=0;swimlaneBody=0;top=0;left=0;bottom=0;right=0;collapsible=0;dropTarget=0;fillColor=none;points=[[0,0.5],[1,0.5]];portConstraint=eastwest;strokeColor=inherit;fontSize=16;" parent="aH4MFKl8BmY1fgAoLkil-114" vertex="1">
          <mxGeometry y="90" width="180" height="30" as="geometry" />
        </mxCell>
        <mxCell id="aH4MFKl8BmY1fgAoLkil-128" style="shape=partialRectangle;html=1;whiteSpace=wrap;connectable=0;fillColor=none;top=0;left=0;bottom=0;right=0;overflow=hidden;strokeColor=inherit;fontSize=16;" parent="aH4MFKl8BmY1fgAoLkil-127" vertex="1">
          <mxGeometry width="40" height="30" as="geometry">
            <mxRectangle width="40" height="30" as="alternateBounds" />
          </mxGeometry>
        </mxCell>
        <mxCell id="aH4MFKl8BmY1fgAoLkil-129" value="MalıDeger" style="shape=partialRectangle;html=1;whiteSpace=wrap;connectable=0;fillColor=none;top=0;left=0;bottom=0;right=0;align=left;spacingLeft=6;overflow=hidden;strokeColor=inherit;fontSize=16;" parent="aH4MFKl8BmY1fgAoLkil-127" vertex="1">
          <mxGeometry x="40" width="140" height="30" as="geometry">
            <mxRectangle width="140" height="30" as="alternateBounds" />
          </mxGeometry>
        </mxCell>
        <mxCell id="aH4MFKl8BmY1fgAoLkil-130" value="" style="endArrow=none;html=1;rounded=0;" parent="WIyWlLk6GJQsqaUBKTNV-1" edge="1">
          <mxGeometry width="50" height="50" relative="1" as="geometry">
            <mxPoint x="1280" y="300" as="sourcePoint" />
            <mxPoint x="1300" y="300" as="targetPoint" />
          </mxGeometry>
        </mxCell>
        <mxCell id="aH4MFKl8BmY1fgAoLkil-131" value="" style="endArrow=none;html=1;rounded=0;" parent="WIyWlLk6GJQsqaUBKTNV-1" edge="1">
          <mxGeometry width="50" height="50" relative="1" as="geometry">
            <mxPoint x="1280" y="290" as="sourcePoint" />
            <mxPoint x="1300" y="290" as="targetPoint" />
          </mxGeometry>
        </mxCell>
        <mxCell id="aH4MFKl8BmY1fgAoLkil-132" value="" style="endArrow=none;html=1;rounded=0;" parent="WIyWlLk6GJQsqaUBKTNV-1" edge="1">
          <mxGeometry width="50" height="50" relative="1" as="geometry">
            <mxPoint x="1520" y="220" as="sourcePoint" />
            <mxPoint x="1540" y="220" as="targetPoint" />
          </mxGeometry>
        </mxCell>
        <mxCell id="aH4MFKl8BmY1fgAoLkil-133" value="" style="endArrow=none;html=1;rounded=0;" parent="WIyWlLk6GJQsqaUBKTNV-1" edge="1">
          <mxGeometry width="50" height="50" relative="1" as="geometry">
            <mxPoint x="1520" y="230" as="sourcePoint" />
            <mxPoint x="1540" y="230" as="targetPoint" />
          </mxGeometry>
        </mxCell>
        <mxCell id="aH4MFKl8BmY1fgAoLkil-134" value="" style="endArrow=none;html=1;rounded=0;" parent="WIyWlLk6GJQsqaUBKTNV-1" edge="1">
          <mxGeometry width="50" height="50" relative="1" as="geometry">
            <mxPoint x="610" y="490" as="sourcePoint" />
            <mxPoint x="630" y="490" as="targetPoint" />
          </mxGeometry>
        </mxCell>
        <mxCell id="aH4MFKl8BmY1fgAoLkil-135" value="" style="endArrow=none;html=1;rounded=0;" parent="WIyWlLk6GJQsqaUBKTNV-1" edge="1">
          <mxGeometry width="50" height="50" relative="1" as="geometry">
            <mxPoint x="610" y="480" as="sourcePoint" />
            <mxPoint x="630" y="480" as="targetPoint" />
          </mxGeometry>
        </mxCell>
        <mxCell id="aH4MFKl8BmY1fgAoLkil-136" value="" style="endArrow=none;dashed=1;html=1;rounded=0;" parent="WIyWlLk6GJQsqaUBKTNV-1" edge="1">
          <mxGeometry width="50" height="50" relative="1" as="geometry">
            <mxPoint x="620" y="610" as="sourcePoint" />
            <mxPoint x="620" y="470" as="targetPoint" />
          </mxGeometry>
        </mxCell>
        <mxCell id="aH4MFKl8BmY1fgAoLkil-137" value="" style="endArrow=none;dashed=1;html=1;rounded=0;exitX=1;exitY=0.5;exitDx=0;exitDy=0;" parent="WIyWlLk6GJQsqaUBKTNV-1" source="aH4MFKl8BmY1fgAoLkil-74" edge="1">
          <mxGeometry width="50" height="50" relative="1" as="geometry">
            <mxPoint x="540" y="640" as="sourcePoint" />
            <mxPoint x="620" y="610" as="targetPoint" />
          </mxGeometry>
        </mxCell>
        <mxCell id="rw01GV1wdH1ff7P7wg1b-2" value="" style="endArrow=none;html=1;rounded=0;exitX=0.409;exitY=-0.012;exitDx=0;exitDy=0;exitPerimeter=0;" parent="WIyWlLk6GJQsqaUBKTNV-1" source="Dwmg8EtGotrLEjZZTlVN-26" edge="1">
          <mxGeometry width="50" height="50" relative="1" as="geometry">
            <mxPoint x="1198" y="568.5" as="sourcePoint" />
            <mxPoint x="1228" y="548.5" as="targetPoint" />
            <Array as="points" />
          </mxGeometry>
        </mxCell>
        <mxCell id="rw01GV1wdH1ff7P7wg1b-3" value="" style="endArrow=none;html=1;rounded=0;exitX=0.45;exitY=-0.002;exitDx=0;exitDy=0;exitPerimeter=0;entryX=0.5;entryY=1;entryDx=0;entryDy=0;" parent="WIyWlLk6GJQsqaUBKTNV-1" source="Dwmg8EtGotrLEjZZTlVN-26" target="aH4MFKl8BmY1fgAoLkil-24" edge="1">
          <mxGeometry width="50" height="50" relative="1" as="geometry">
            <mxPoint x="1168" y="548.5" as="sourcePoint" />
            <mxPoint x="1218" y="498.5" as="targetPoint" />
          </mxGeometry>
        </mxCell>
        <mxCell id="rw01GV1wdH1ff7P7wg1b-4" value="" style="endArrow=none;html=1;rounded=0;exitX=0.5;exitY=1;exitDx=0;exitDy=0;entryX=0.495;entryY=-0.009;entryDx=0;entryDy=0;entryPerimeter=0;" parent="WIyWlLk6GJQsqaUBKTNV-1" source="aH4MFKl8BmY1fgAoLkil-24" target="Dwmg8EtGotrLEjZZTlVN-26" edge="1">
          <mxGeometry width="50" height="50" relative="1" as="geometry">
            <mxPoint x="1178" y="538.5" as="sourcePoint" />
            <mxPoint x="1228" y="488.5" as="targetPoint" />
          </mxGeometry>
        </mxCell>
        <mxCell id="rsTdlN0C95ZgyZTxl1ph-3" value="futbolcu" style="shape=table;startSize=30;container=1;collapsible=0;childLayout=tableLayout;fixedRows=1;rowLines=0;fontStyle=0;strokeColor=default;fontSize=16;" vertex="1" parent="WIyWlLk6GJQsqaUBKTNV-1">
          <mxGeometry x="810" y="920" width="180" height="150" as="geometry" />
        </mxCell>
        <mxCell id="rsTdlN0C95ZgyZTxl1ph-4" value="" style="shape=tableRow;horizontal=0;startSize=0;swimlaneHead=0;swimlaneBody=0;top=0;left=0;bottom=0;right=0;collapsible=0;dropTarget=0;fillColor=none;points=[[0,0.5],[1,0.5]];portConstraint=eastwest;strokeColor=inherit;fontSize=16;" vertex="1" parent="rsTdlN0C95ZgyZTxl1ph-3">
          <mxGeometry y="30" width="180" height="30" as="geometry" />
        </mxCell>
        <mxCell id="rsTdlN0C95ZgyZTxl1ph-5" value="PK" style="shape=partialRectangle;html=1;whiteSpace=wrap;connectable=0;fillColor=none;top=0;left=0;bottom=0;right=0;overflow=hidden;pointerEvents=1;strokeColor=inherit;fontSize=16;" vertex="1" parent="rsTdlN0C95ZgyZTxl1ph-4">
          <mxGeometry width="37" height="30" as="geometry">
            <mxRectangle width="37" height="30" as="alternateBounds" />
          </mxGeometry>
        </mxCell>
        <mxCell id="rsTdlN0C95ZgyZTxl1ph-6" value="futbolcuid" style="shape=partialRectangle;html=1;whiteSpace=wrap;connectable=0;fillColor=none;top=0;left=0;bottom=0;right=0;align=left;spacingLeft=6;overflow=hidden;strokeColor=inherit;fontSize=16;" vertex="1" parent="rsTdlN0C95ZgyZTxl1ph-4">
          <mxGeometry x="37" width="143" height="30" as="geometry">
            <mxRectangle width="143" height="30" as="alternateBounds" />
          </mxGeometry>
        </mxCell>
        <mxCell id="rsTdlN0C95ZgyZTxl1ph-7" value="" style="shape=tableRow;horizontal=0;startSize=0;swimlaneHead=0;swimlaneBody=0;top=0;left=0;bottom=0;right=0;collapsible=0;dropTarget=0;fillColor=none;points=[[0,0.5],[1,0.5]];portConstraint=eastwest;strokeColor=inherit;fontSize=16;" vertex="1" parent="rsTdlN0C95ZgyZTxl1ph-3">
          <mxGeometry y="60" width="180" height="30" as="geometry" />
        </mxCell>
        <mxCell id="rsTdlN0C95ZgyZTxl1ph-8" value="FK" style="shape=partialRectangle;html=1;whiteSpace=wrap;connectable=0;fillColor=none;top=0;left=0;bottom=0;right=0;overflow=hidden;strokeColor=inherit;fontSize=16;" vertex="1" parent="rsTdlN0C95ZgyZTxl1ph-7">
          <mxGeometry width="37" height="30" as="geometry">
            <mxRectangle width="37" height="30" as="alternateBounds" />
          </mxGeometry>
        </mxCell>
        <mxCell id="rsTdlN0C95ZgyZTxl1ph-9" value="TakımID" style="shape=partialRectangle;html=1;whiteSpace=wrap;connectable=0;fillColor=none;top=0;left=0;bottom=0;right=0;align=left;spacingLeft=6;overflow=hidden;strokeColor=inherit;fontSize=16;" vertex="1" parent="rsTdlN0C95ZgyZTxl1ph-7">
          <mxGeometry x="37" width="143" height="30" as="geometry">
            <mxRectangle width="143" height="30" as="alternateBounds" />
          </mxGeometry>
        </mxCell>
        <mxCell id="rsTdlN0C95ZgyZTxl1ph-10" style="shape=tableRow;horizontal=0;startSize=0;swimlaneHead=0;swimlaneBody=0;top=0;left=0;bottom=0;right=0;collapsible=0;dropTarget=0;fillColor=none;points=[[0,0.5],[1,0.5]];portConstraint=eastwest;strokeColor=inherit;fontSize=16;" vertex="1" parent="rsTdlN0C95ZgyZTxl1ph-3">
          <mxGeometry y="90" width="180" height="30" as="geometry" />
        </mxCell>
        <mxCell id="rsTdlN0C95ZgyZTxl1ph-11" value="FK" style="shape=partialRectangle;html=1;whiteSpace=wrap;connectable=0;fillColor=none;top=0;left=0;bottom=0;right=0;overflow=hidden;strokeColor=inherit;fontSize=16;" vertex="1" parent="rsTdlN0C95ZgyZTxl1ph-10">
          <mxGeometry width="37" height="30" as="geometry">
            <mxRectangle width="37" height="30" as="alternateBounds" />
          </mxGeometry>
        </mxCell>
        <mxCell id="rsTdlN0C95ZgyZTxl1ph-12" value="OyuncuID" style="shape=partialRectangle;html=1;whiteSpace=wrap;connectable=0;fillColor=none;top=0;left=0;bottom=0;right=0;align=left;spacingLeft=6;overflow=hidden;strokeColor=inherit;fontSize=16;" vertex="1" parent="rsTdlN0C95ZgyZTxl1ph-10">
          <mxGeometry x="37" width="143" height="30" as="geometry">
            <mxRectangle width="143" height="30" as="alternateBounds" />
          </mxGeometry>
        </mxCell>
        <mxCell id="rsTdlN0C95ZgyZTxl1ph-13" style="shape=tableRow;horizontal=0;startSize=0;swimlaneHead=0;swimlaneBody=0;top=0;left=0;bottom=0;right=0;collapsible=0;dropTarget=0;fillColor=none;points=[[0,0.5],[1,0.5]];portConstraint=eastwest;strokeColor=inherit;fontSize=16;" vertex="1" parent="rsTdlN0C95ZgyZTxl1ph-3">
          <mxGeometry y="120" width="180" height="30" as="geometry" />
        </mxCell>
        <mxCell id="rsTdlN0C95ZgyZTxl1ph-14" style="shape=partialRectangle;html=1;whiteSpace=wrap;connectable=0;fillColor=none;top=0;left=0;bottom=0;right=0;overflow=hidden;strokeColor=inherit;fontSize=16;" vertex="1" parent="rsTdlN0C95ZgyZTxl1ph-13">
          <mxGeometry width="37" height="30" as="geometry">
            <mxRectangle width="37" height="30" as="alternateBounds" />
          </mxGeometry>
        </mxCell>
        <mxCell id="rsTdlN0C95ZgyZTxl1ph-15" value="pozisyon" style="shape=partialRectangle;html=1;whiteSpace=wrap;connectable=0;fillColor=none;top=0;left=0;bottom=0;right=0;align=left;spacingLeft=6;overflow=hidden;strokeColor=inherit;fontSize=16;" vertex="1" parent="rsTdlN0C95ZgyZTxl1ph-13">
          <mxGeometry x="37" width="143" height="30" as="geometry">
            <mxRectangle width="143" height="30" as="alternateBounds" />
          </mxGeometry>
        </mxCell>
        <mxCell id="rsTdlN0C95ZgyZTxl1ph-16" value="basketbolcu" style="shape=table;startSize=30;container=1;collapsible=0;childLayout=tableLayout;fixedRows=1;rowLines=0;fontStyle=0;strokeColor=default;fontSize=16;" vertex="1" parent="WIyWlLk6GJQsqaUBKTNV-1">
          <mxGeometry x="1253" y="920" width="180" height="150" as="geometry" />
        </mxCell>
        <mxCell id="rsTdlN0C95ZgyZTxl1ph-17" value="" style="shape=tableRow;horizontal=0;startSize=0;swimlaneHead=0;swimlaneBody=0;top=0;left=0;bottom=0;right=0;collapsible=0;dropTarget=0;fillColor=none;points=[[0,0.5],[1,0.5]];portConstraint=eastwest;strokeColor=inherit;fontSize=16;" vertex="1" parent="rsTdlN0C95ZgyZTxl1ph-16">
          <mxGeometry y="30" width="180" height="30" as="geometry" />
        </mxCell>
        <mxCell id="rsTdlN0C95ZgyZTxl1ph-18" value="PK" style="shape=partialRectangle;html=1;whiteSpace=wrap;connectable=0;fillColor=none;top=0;left=0;bottom=0;right=0;overflow=hidden;pointerEvents=1;strokeColor=inherit;fontSize=16;" vertex="1" parent="rsTdlN0C95ZgyZTxl1ph-17">
          <mxGeometry width="37" height="30" as="geometry">
            <mxRectangle width="37" height="30" as="alternateBounds" />
          </mxGeometry>
        </mxCell>
        <mxCell id="rsTdlN0C95ZgyZTxl1ph-19" value="basketbolcuid" style="shape=partialRectangle;html=1;whiteSpace=wrap;connectable=0;fillColor=none;top=0;left=0;bottom=0;right=0;align=left;spacingLeft=6;overflow=hidden;strokeColor=inherit;fontSize=16;" vertex="1" parent="rsTdlN0C95ZgyZTxl1ph-17">
          <mxGeometry x="37" width="143" height="30" as="geometry">
            <mxRectangle width="143" height="30" as="alternateBounds" />
          </mxGeometry>
        </mxCell>
        <mxCell id="rsTdlN0C95ZgyZTxl1ph-20" value="" style="shape=tableRow;horizontal=0;startSize=0;swimlaneHead=0;swimlaneBody=0;top=0;left=0;bottom=0;right=0;collapsible=0;dropTarget=0;fillColor=none;points=[[0,0.5],[1,0.5]];portConstraint=eastwest;strokeColor=inherit;fontSize=16;" vertex="1" parent="rsTdlN0C95ZgyZTxl1ph-16">
          <mxGeometry y="60" width="180" height="30" as="geometry" />
        </mxCell>
        <mxCell id="rsTdlN0C95ZgyZTxl1ph-21" value="FK" style="shape=partialRectangle;html=1;whiteSpace=wrap;connectable=0;fillColor=none;top=0;left=0;bottom=0;right=0;overflow=hidden;strokeColor=inherit;fontSize=16;" vertex="1" parent="rsTdlN0C95ZgyZTxl1ph-20">
          <mxGeometry width="37" height="30" as="geometry">
            <mxRectangle width="37" height="30" as="alternateBounds" />
          </mxGeometry>
        </mxCell>
        <mxCell id="rsTdlN0C95ZgyZTxl1ph-22" value="TakımID" style="shape=partialRectangle;html=1;whiteSpace=wrap;connectable=0;fillColor=none;top=0;left=0;bottom=0;right=0;align=left;spacingLeft=6;overflow=hidden;strokeColor=inherit;fontSize=16;" vertex="1" parent="rsTdlN0C95ZgyZTxl1ph-20">
          <mxGeometry x="37" width="143" height="30" as="geometry">
            <mxRectangle width="143" height="30" as="alternateBounds" />
          </mxGeometry>
        </mxCell>
        <mxCell id="rsTdlN0C95ZgyZTxl1ph-23" style="shape=tableRow;horizontal=0;startSize=0;swimlaneHead=0;swimlaneBody=0;top=0;left=0;bottom=0;right=0;collapsible=0;dropTarget=0;fillColor=none;points=[[0,0.5],[1,0.5]];portConstraint=eastwest;strokeColor=inherit;fontSize=16;" vertex="1" parent="rsTdlN0C95ZgyZTxl1ph-16">
          <mxGeometry y="90" width="180" height="30" as="geometry" />
        </mxCell>
        <mxCell id="rsTdlN0C95ZgyZTxl1ph-24" value="FK" style="shape=partialRectangle;html=1;whiteSpace=wrap;connectable=0;fillColor=none;top=0;left=0;bottom=0;right=0;overflow=hidden;strokeColor=inherit;fontSize=16;" vertex="1" parent="rsTdlN0C95ZgyZTxl1ph-23">
          <mxGeometry width="37" height="30" as="geometry">
            <mxRectangle width="37" height="30" as="alternateBounds" />
          </mxGeometry>
        </mxCell>
        <mxCell id="rsTdlN0C95ZgyZTxl1ph-25" value="OyuncuID" style="shape=partialRectangle;html=1;whiteSpace=wrap;connectable=0;fillColor=none;top=0;left=0;bottom=0;right=0;align=left;spacingLeft=6;overflow=hidden;strokeColor=inherit;fontSize=16;" vertex="1" parent="rsTdlN0C95ZgyZTxl1ph-23">
          <mxGeometry x="37" width="143" height="30" as="geometry">
            <mxRectangle width="143" height="30" as="alternateBounds" />
          </mxGeometry>
        </mxCell>
        <mxCell id="rsTdlN0C95ZgyZTxl1ph-26" style="shape=tableRow;horizontal=0;startSize=0;swimlaneHead=0;swimlaneBody=0;top=0;left=0;bottom=0;right=0;collapsible=0;dropTarget=0;fillColor=none;points=[[0,0.5],[1,0.5]];portConstraint=eastwest;strokeColor=inherit;fontSize=16;" vertex="1" parent="rsTdlN0C95ZgyZTxl1ph-16">
          <mxGeometry y="120" width="180" height="30" as="geometry" />
        </mxCell>
        <mxCell id="rsTdlN0C95ZgyZTxl1ph-27" style="shape=partialRectangle;html=1;whiteSpace=wrap;connectable=0;fillColor=none;top=0;left=0;bottom=0;right=0;overflow=hidden;strokeColor=inherit;fontSize=16;" vertex="1" parent="rsTdlN0C95ZgyZTxl1ph-26">
          <mxGeometry width="37" height="30" as="geometry">
            <mxRectangle width="37" height="30" as="alternateBounds" />
          </mxGeometry>
        </mxCell>
        <mxCell id="rsTdlN0C95ZgyZTxl1ph-28" value="pozisyon" style="shape=partialRectangle;html=1;whiteSpace=wrap;connectable=0;fillColor=none;top=0;left=0;bottom=0;right=0;align=left;spacingLeft=6;overflow=hidden;strokeColor=inherit;fontSize=16;" vertex="1" parent="rsTdlN0C95ZgyZTxl1ph-26">
          <mxGeometry x="37" width="143" height="30" as="geometry">
            <mxRectangle width="143" height="30" as="alternateBounds" />
          </mxGeometry>
        </mxCell>
        <mxCell id="rsTdlN0C95ZgyZTxl1ph-29" value="esporcu" style="shape=table;startSize=30;container=1;collapsible=0;childLayout=tableLayout;fixedRows=1;rowLines=0;fontStyle=0;strokeColor=default;fontSize=16;" vertex="1" parent="WIyWlLk6GJQsqaUBKTNV-1">
          <mxGeometry x="1460" y="920" width="180" height="150" as="geometry" />
        </mxCell>
        <mxCell id="rsTdlN0C95ZgyZTxl1ph-30" value="" style="shape=tableRow;horizontal=0;startSize=0;swimlaneHead=0;swimlaneBody=0;top=0;left=0;bottom=0;right=0;collapsible=0;dropTarget=0;fillColor=none;points=[[0,0.5],[1,0.5]];portConstraint=eastwest;strokeColor=inherit;fontSize=16;" vertex="1" parent="rsTdlN0C95ZgyZTxl1ph-29">
          <mxGeometry y="30" width="180" height="30" as="geometry" />
        </mxCell>
        <mxCell id="rsTdlN0C95ZgyZTxl1ph-31" value="PK" style="shape=partialRectangle;html=1;whiteSpace=wrap;connectable=0;fillColor=none;top=0;left=0;bottom=0;right=0;overflow=hidden;pointerEvents=1;strokeColor=inherit;fontSize=16;" vertex="1" parent="rsTdlN0C95ZgyZTxl1ph-30">
          <mxGeometry width="37" height="30" as="geometry">
            <mxRectangle width="37" height="30" as="alternateBounds" />
          </mxGeometry>
        </mxCell>
        <mxCell id="rsTdlN0C95ZgyZTxl1ph-32" value="esporcuid" style="shape=partialRectangle;html=1;whiteSpace=wrap;connectable=0;fillColor=none;top=0;left=0;bottom=0;right=0;align=left;spacingLeft=6;overflow=hidden;strokeColor=inherit;fontSize=16;" vertex="1" parent="rsTdlN0C95ZgyZTxl1ph-30">
          <mxGeometry x="37" width="143" height="30" as="geometry">
            <mxRectangle width="143" height="30" as="alternateBounds" />
          </mxGeometry>
        </mxCell>
        <mxCell id="rsTdlN0C95ZgyZTxl1ph-33" value="" style="shape=tableRow;horizontal=0;startSize=0;swimlaneHead=0;swimlaneBody=0;top=0;left=0;bottom=0;right=0;collapsible=0;dropTarget=0;fillColor=none;points=[[0,0.5],[1,0.5]];portConstraint=eastwest;strokeColor=inherit;fontSize=16;" vertex="1" parent="rsTdlN0C95ZgyZTxl1ph-29">
          <mxGeometry y="60" width="180" height="30" as="geometry" />
        </mxCell>
        <mxCell id="rsTdlN0C95ZgyZTxl1ph-34" value="FK" style="shape=partialRectangle;html=1;whiteSpace=wrap;connectable=0;fillColor=none;top=0;left=0;bottom=0;right=0;overflow=hidden;strokeColor=inherit;fontSize=16;" vertex="1" parent="rsTdlN0C95ZgyZTxl1ph-33">
          <mxGeometry width="37" height="30" as="geometry">
            <mxRectangle width="37" height="30" as="alternateBounds" />
          </mxGeometry>
        </mxCell>
        <mxCell id="rsTdlN0C95ZgyZTxl1ph-35" value="TakımID" style="shape=partialRectangle;html=1;whiteSpace=wrap;connectable=0;fillColor=none;top=0;left=0;bottom=0;right=0;align=left;spacingLeft=6;overflow=hidden;strokeColor=inherit;fontSize=16;" vertex="1" parent="rsTdlN0C95ZgyZTxl1ph-33">
          <mxGeometry x="37" width="143" height="30" as="geometry">
            <mxRectangle width="143" height="30" as="alternateBounds" />
          </mxGeometry>
        </mxCell>
        <mxCell id="rsTdlN0C95ZgyZTxl1ph-36" style="shape=tableRow;horizontal=0;startSize=0;swimlaneHead=0;swimlaneBody=0;top=0;left=0;bottom=0;right=0;collapsible=0;dropTarget=0;fillColor=none;points=[[0,0.5],[1,0.5]];portConstraint=eastwest;strokeColor=inherit;fontSize=16;" vertex="1" parent="rsTdlN0C95ZgyZTxl1ph-29">
          <mxGeometry y="90" width="180" height="30" as="geometry" />
        </mxCell>
        <mxCell id="rsTdlN0C95ZgyZTxl1ph-37" value="FK" style="shape=partialRectangle;html=1;whiteSpace=wrap;connectable=0;fillColor=none;top=0;left=0;bottom=0;right=0;overflow=hidden;strokeColor=inherit;fontSize=16;" vertex="1" parent="rsTdlN0C95ZgyZTxl1ph-36">
          <mxGeometry width="37" height="30" as="geometry">
            <mxRectangle width="37" height="30" as="alternateBounds" />
          </mxGeometry>
        </mxCell>
        <mxCell id="rsTdlN0C95ZgyZTxl1ph-38" value="OyuncuID" style="shape=partialRectangle;html=1;whiteSpace=wrap;connectable=0;fillColor=none;top=0;left=0;bottom=0;right=0;align=left;spacingLeft=6;overflow=hidden;strokeColor=inherit;fontSize=16;" vertex="1" parent="rsTdlN0C95ZgyZTxl1ph-36">
          <mxGeometry x="37" width="143" height="30" as="geometry">
            <mxRectangle width="143" height="30" as="alternateBounds" />
          </mxGeometry>
        </mxCell>
        <mxCell id="rsTdlN0C95ZgyZTxl1ph-39" style="shape=tableRow;horizontal=0;startSize=0;swimlaneHead=0;swimlaneBody=0;top=0;left=0;bottom=0;right=0;collapsible=0;dropTarget=0;fillColor=none;points=[[0,0.5],[1,0.5]];portConstraint=eastwest;strokeColor=inherit;fontSize=16;" vertex="1" parent="rsTdlN0C95ZgyZTxl1ph-29">
          <mxGeometry y="120" width="180" height="30" as="geometry" />
        </mxCell>
        <mxCell id="rsTdlN0C95ZgyZTxl1ph-40" style="shape=partialRectangle;html=1;whiteSpace=wrap;connectable=0;fillColor=none;top=0;left=0;bottom=0;right=0;overflow=hidden;strokeColor=inherit;fontSize=16;" vertex="1" parent="rsTdlN0C95ZgyZTxl1ph-39">
          <mxGeometry width="37" height="30" as="geometry">
            <mxRectangle width="37" height="30" as="alternateBounds" />
          </mxGeometry>
        </mxCell>
        <mxCell id="rsTdlN0C95ZgyZTxl1ph-41" value="oyunadi" style="shape=partialRectangle;html=1;whiteSpace=wrap;connectable=0;fillColor=none;top=0;left=0;bottom=0;right=0;align=left;spacingLeft=6;overflow=hidden;strokeColor=inherit;fontSize=16;" vertex="1" parent="rsTdlN0C95ZgyZTxl1ph-39">
          <mxGeometry x="37" width="143" height="30" as="geometry">
            <mxRectangle width="143" height="30" as="alternateBounds" />
          </mxGeometry>
        </mxCell>
        <mxCell id="rsTdlN0C95ZgyZTxl1ph-43" value="" style="endArrow=none;html=1;rounded=0;" edge="1" parent="WIyWlLk6GJQsqaUBKTNV-1">
          <mxGeometry width="50" height="50" relative="1" as="geometry">
            <mxPoint x="1240" y="880" as="sourcePoint" />
            <mxPoint x="1240" y="800" as="targetPoint" />
          </mxGeometry>
        </mxCell>
        <mxCell id="rsTdlN0C95ZgyZTxl1ph-45" value="" style="endArrow=none;html=1;rounded=0;exitX=0.5;exitY=0;exitDx=0;exitDy=0;entryX=0.492;entryY=1.086;entryDx=0;entryDy=0;entryPerimeter=0;" edge="1" parent="WIyWlLk6GJQsqaUBKTNV-1" target="aH4MFKl8BmY1fgAoLkil-108">
          <mxGeometry width="50" height="50" relative="1" as="geometry">
            <mxPoint x="1236" y="758.5" as="sourcePoint" />
            <mxPoint x="988" y="758.5" as="targetPoint" />
          </mxGeometry>
        </mxCell>
        <mxCell id="rsTdlN0C95ZgyZTxl1ph-56" value="" style="endArrow=none;html=1;rounded=0;exitX=0.5;exitY=0;exitDx=0;exitDy=0;" edge="1" parent="WIyWlLk6GJQsqaUBKTNV-1" source="aH4MFKl8BmY1fgAoLkil-24">
          <mxGeometry width="50" height="50" relative="1" as="geometry">
            <mxPoint x="1090" y="550" as="sourcePoint" />
            <mxPoint x="1230" y="460" as="targetPoint" />
          </mxGeometry>
        </mxCell>
      </root>
    </mxGraphModel>
  </diagram>
</mxfile>
